<?xml version="1.0" standalone="no"?>
<!DOCTYPE svg PUBLIC "-//W3C//DTD SVG 20010904//EN"
  "http://www.w3.org/TR/2001/REC-SVG-20010904/DTD/svg10.dtd">
<svg version="1.0" xmlns="http://www.w3.org/2000/svg" width="3643.000000pt" height="3643.000000pt" viewBox="0 0 3643.000000 3643.000000" preserveAspectRatio="xMidYMid meet">
<metadata>
Created by potrace 1.14, written by Peter Selinger 2001-2017
</metadata>
<g transform="translate(0.000000,3643.000000) scale(0.100000,-0.100000)"
fill="#000000" stroke="none">
<path d="M25208 28390 c-26 -26 -27 -32 -24 -106 2 -44 8 -97 14 -119 6 -22
14 -56 17 -75 3 -19 7 -46 10 -60 3 -14 7 -41 10 -60 6 -32 71 -357 81 -405 3
-11 14 -67 25 -125 10 -58 22 -116 24 -130 3 -14 8 -47 11 -75 4 -27 8 -53 10
-56 18 -31 26 -690 10 -889 -6 -88 -29 -262 -41 -320 -3 -14 -8 -41 -11 -60
-11 -57 -11 -61 -34 -160 -11 -52 -30 -131 -41 -175 -12 -44 -23 -91 -25 -105
-3 -14 -9 -41 -14 -60 -50 -189 -14 -253 101 -179 43 27 102 94 135 154 162
286 292 682 339 1025 3 25 8 57 10 71 15 88 22 507 11 614 -17 163 -40 291
-92 502 -64 265 -118 386 -274 616 -133 197 -191 237 -252 177z"/>
<path d="M8871 27048 c-38 -40 -133 -302 -147 -403 -3 -22 -7 -46 -10 -53 -19
-58 -27 -485 -12 -624 8 -69 41 -235 57 -278 5 -14 15 -45 22 -70 7 -25 16
-49 19 -55 4 -5 17 -37 30 -70 29 -75 165 -343 185 -365 8 -9 15 -19 15 -23 0
-3 13 -26 30 -50 l30 -44 -153 -231 c-83 -127 -159 -243 -168 -259 -10 -15
-47 -77 -84 -138 -229 -378 -443 -961 -531 -1445 -4 -19 -8 -42 -9 -50 -2 -8
-12 -62 -23 -120 -12 -58 -23 -127 -26 -155 -6 -49 -15 -111 -22 -150 -2 -11
-6 -49 -9 -85 -4 -36 -8 -72 -10 -80 -2 -8 -7 -49 -10 -90 -3 -41 -8 -91 -10
-110 -24 -199 -24 -849 0 -1030 2 -14 6 -52 9 -85 4 -33 9 -69 11 -80 2 -11 7
-42 10 -70 4 -27 18 -102 31 -165 14 -63 27 -125 29 -136 22 -104 180 -491
277 -679 75 -144 111 -211 124 -226 8 -8 14 -19 14 -23 0 -8 70 -105 113 -156
55 -66 192 -203 262 -263 39 -33 72 -63 75 -67 11 -13 218 -159 270 -190 186
-111 328 -157 620 -204 36 -6 44 -7 215 -26 55 -6 110 -13 121 -15 121 -20
423 -26 529 -12 227 32 455 106 695 227 140 71 341 205 435 291 17 16 41 37
55 49 32 27 227 219 261 258 15 16 50 56 79 88 94 106 104 118 176 215 66 91
136 197 249 382 26 42 51 77 55 77 4 0 11 -10 14 -22 13 -46 75 -294 80 -318
2 -14 16 -77 30 -140 23 -107 49 -232 60 -290 2 -14 16 -88 30 -165 47 -253
86 -399 128 -474 24 -44 77 -101 94 -101 17 0 64 58 84 105 19 44 56 196 66
266 10 77 12 421 3 499 -4 41 -11 101 -14 133 -4 32 -8 68 -11 80 -2 12 -8 47
-14 77 -5 30 -11 66 -14 80 -5 30 -21 101 -42 190 -9 36 -36 134 -60 219 l-45
153 27 41 c81 123 228 200 337 175 78 -17 141 -88 173 -194 18 -62 49 -235 79
-449 11 -80 25 -181 31 -220 2 -22 9 -65 14 -95 5 -30 12 -71 15 -90 3 -19 8
-46 10 -60 3 -14 7 -34 9 -45 19 -100 61 -217 101 -280 40 -63 77 -100 135
-133 87 -52 245 -35 369 40 158 94 554 523 740 800 l52 77 87 -68 c48 -38 105
-78 127 -89 153 -77 473 -104 608 -53 136 53 271 177 395 361 107 161 257 434
402 734 53 110 100 194 103 189 4 -6 23 -56 42 -111 100 -287 148 -382 202
-403 20 -8 43 -6 91 7 96 26 97 30 97 254 -1 102 -4 210 -8 240 -4 30 -10 82
-12 115 -6 65 -11 108 -25 200 -5 33 -12 80 -15 105 -3 25 -8 52 -10 60 -2 8
-7 35 -10 60 -2 25 -7 54 -9 66 -11 55 -19 134 -19 184 0 173 68 486 138 635
37 79 105 155 138 155 52 -1 100 -75 127 -197 18 -76 109 -522 125 -608 3 -16
12 -68 21 -115 9 -47 17 -96 19 -108 2 -13 8 -45 14 -70 12 -57 48 -269 56
-337 3 -27 8 -61 10 -75 2 -14 6 -47 10 -75 16 -131 44 -197 91 -220 41 -19
59 -19 94 2 37 21 55 77 45 140 -13 84 -15 96 -22 198 -12 176 -8 431 12 610
10 95 16 142 20 168 3 15 10 55 15 90 50 294 153 634 227 752 27 43 96 101
127 107 13 2 28 -8 44 -32 23 -33 24 -41 18 -135 -4 -69 -19 -156 -51 -283
-25 -101 -47 -194 -49 -205 -3 -12 -7 -31 -10 -42 -20 -77 -64 -311 -71 -375
-1 -14 -5 -47 -9 -75 -12 -91 -17 -143 -32 -335 -7 -95 -8 -108 -20 -340 -16
-304 -9 -1144 11 -1340 21 -201 24 -228 36 -295 54 -310 190 -537 402 -669 84
-52 199 -94 268 -97 148 -7 250 52 373 215 97 129 320 497 415 684 8 17 22 48
40 95 5 12 14 36 21 52 52 126 250 760 280 895 7 30 16 66 19 80 11 37 14 220
4 220 -4 0 -28 -42 -52 -93 -46 -96 -57 -117 -213 -387 -104 -181 -115 -201
-296 -535 -154 -284 -243 -436 -317 -540 -65 -92 -96 -124 -167 -171 -47 -32
-52 -33 -68 -19 -43 39 -106 233 -130 401 -30 212 -32 566 -5 909 2 33 7 96
10 140 3 44 8 91 10 105 2 14 6 57 10 95 6 66 8 86 20 171 3 19 7 56 10 82 3
26 8 54 10 62 2 8 7 40 10 70 3 30 8 62 10 70 2 8 7 40 10 70 3 30 8 62 10 70
2 8 6 34 9 58 11 81 16 118 21 142 2 13 9 58 15 99 6 42 12 87 14 101 6 34 17
117 22 159 2 19 5 48 8 65 3 17 7 58 11 91 3 33 8 80 11 104 7 62 7 287 -1
346 -42 325 -87 467 -183 571 -74 81 -153 116 -272 119 -214 5 -399 -134 -529
-400 -28 -56 -57 -121 -66 -145 -64 -177 -102 -296 -137 -430 -22 -85 -43
-161 -48 -169 -4 -8 -12 12 -19 50 -27 135 -90 371 -115 424 -38 83 -119 160
-191 181 -100 28 -184 8 -261 -64 -73 -67 -129 -170 -183 -334 -18 -54 -36
-98 -41 -98 -11 0 -59 202 -65 272 -10 106 -53 185 -121 218 -52 26 -90 25
-134 -1 -134 -80 -176 -265 -135 -584 15 -111 16 -114 46 -265 6 -30 33 -147
60 -260 27 -113 52 -216 55 -229 3 -13 -2 -34 -13 -50 -10 -14 -22 -34 -28
-44 -5 -9 -38 -63 -72 -120 -115 -192 -293 -500 -293 -509 0 -4 -4 -8 -10 -8
-5 0 -10 -5 -10 -10 0 -13 -133 -226 -204 -325 -110 -156 -204 -255 -273 -287
-111 -50 -264 -18 -356 75 -48 48 -105 150 -109 193 -1 25 54 154 82 189 10
13 131 253 165 330 83 182 232 551 278 685 35 104 38 130 42 335 l4 180 -38
115 c-54 161 -102 254 -149 284 -42 28 -190 76 -242 80 -143 10 -352 -108
-442 -250 -29 -45 -158 -274 -158 -280 0 -2 -13 -31 -30 -66 -62 -132 -128
-382 -154 -581 -13 -103 -15 -431 -2 -517 34 -232 114 -467 212 -622 13 -21
24 -43 24 -50 0 -32 -242 -363 -390 -533 -99 -113 -299 -303 -348 -329 -68
-36 -133 -38 -169 -4 -54 50 -96 161 -127 333 -3 17 -8 41 -11 55 -3 14 -7 39
-10 55 -3 17 -10 50 -15 75 -5 25 -12 56 -14 70 -22 137 -86 471 -102 539 -25
101 -70 188 -130 248 -101 102 -263 152 -386 118 -16 -4 -28 -3 -28 2 0 16 46
144 90 248 22 55 49 118 57 140 21 52 120 242 168 325 110 187 263 347 379
395 54 23 66 6 92 -120 2 -11 13 -50 24 -87 51 -163 163 -226 251 -142 60 58
59 203 -2 394 -45 143 -116 220 -219 237 -60 10 -73 9 -133 -4 -140 -31 -280
-142 -462 -364 -28 -34 -116 -167 -139 -209 -74 -140 -98 -189 -144 -295 -63
-147 -86 -209 -167 -442 -73 -208 -75 -214 -86 -187 -20 52 -9 141 41 309 27
94 55 188 61 210 6 22 17 60 25 85 14 46 123 479 130 515 2 11 6 33 10 48 18
86 27 226 27 452 1 269 -6 360 -38 485 -67 265 -113 368 -200 456 -81 80 -128
97 -285 100 -131 2 -178 -9 -254 -59 -54 -36 -166 -146 -211 -206 -45 -61 -89
-201 -101 -320 -7 -67 -6 -318 1 -381 2 -19 7 -69 10 -110 3 -41 7 -82 10 -90
2 -8 7 -42 10 -75 4 -33 8 -67 10 -75 2 -8 7 -35 10 -60 12 -87 13 -93 65
-365 11 -60 22 -119 24 -130 28 -148 200 -883 224 -955 7 -22 -1 -44 -51 -130
-33 -58 -71 -125 -84 -148 -14 -24 -38 -65 -53 -90 -16 -26 -41 -67 -56 -92
-46 -77 -164 -240 -228 -314 -88 -104 -462 -480 -522 -527 -71 -54 -206 -106
-329 -124 -22 -4 -58 -10 -80 -15 -52 -11 -228 -23 -335 -23 -211 1 -440 45
-615 118 -229 96 -751 424 -888 558 -66 65 -83 89 -136 198 -90 187 -174 402
-259 669 -34 105 -107 385 -116 440 -3 19 -8 46 -11 60 -18 91 -25 132 -31
185 -4 33 -8 68 -10 77 -26 148 -26 763 1 1023 13 120 17 159 31 250 29 202
60 350 109 525 19 69 37 133 40 143 14 60 119 296 191 432 46 88 143 277 213
420 71 143 137 268 147 277 18 15 23 14 93 -18 177 -84 315 -113 536 -112 132
0 242 9 392 33 36 6 145 32 268 64 17 4 80 29 141 55 269 113 521 303 761 572
68 77 99 119 141 197 29 52 74 159 74 174 0 4 4 15 9 24 4 9 10 27 13 40 3 13
8 35 11 49 4 14 9 70 12 126 6 110 -9 191 -50 273 -27 55 -104 134 -155 160
-21 11 -72 45 -113 76 -140 107 -229 138 -389 138 -68 0 -128 -6 -170 -17 -36
-10 -72 -19 -80 -21 -26 -6 -189 -79 -350 -158 -485 -235 -618 -303 -707 -363
-88 -59 -191 -139 -218 -168 -5 -6 -26 -24 -45 -40 -19 -15 -53 -45 -75 -65
-22 -21 -91 -84 -154 -141 l-115 -104 -40 46 c-62 68 -207 290 -264 404 -29
58 -88 237 -106 324 -13 62 -15 126 -12 360 3 157 8 312 12 345 4 33 7 91 8
128 1 64 -1 71 -26 91 -37 29 -73 31 -97 4z m2485 -1048 c72 -24 118 -93 107
-162 -8 -57 -63 -176 -111 -241 -62 -84 -234 -254 -305 -301 -127 -83 -408
-197 -619 -252 -195 -49 -272 -57 -393 -38 -84 13 -135 27 -135 36 0 38 197
238 615 622 115 105 251 184 465 269 197 79 290 95 376 67z m1604 -2889 c80
-48 127 -172 148 -391 11 -120 7 -498 -6 -570 -7 -36 -14 -76 -16 -90 -2 -14
-14 -70 -26 -125 -12 -55 -24 -111 -26 -125 -4 -23 -48 -202 -76 -307 -15 -57
-31 -57 -42 -2 -17 93 -71 295 -152 564 -56 190 -101 364 -110 430 -3 22 -10
58 -14 80 -9 42 -6 179 5 230 19 88 111 273 157 318 26 25 34 28 71 22 23 -4
62 -19 87 -34z m2818 -846 c9 -9 8 -170 -1 -265 -19 -185 -76 -471 -126 -635
-37 -118 -121 -310 -188 -431 -18 -32 -28 -42 -33 -33 -23 42 -27 514 -6 704
19 166 19 170 45 295 43 207 98 311 191 364 33 19 49 22 77 16 19 -5 38 -11
41 -15z"/>
<path d="M27247 26163 c-131 -124 -324 -322 -412 -423 -150 -173 -448 -572
-490 -656 -40 -81 -43 -111 -15 -142 51 -54 123 -37 212 50 80 78 251 306 412
548 31 47 60 90 64 95 45 56 267 452 307 548 14 34 14 37 -1 37 -8 0 -43 -26
-77 -57z"/>
<path d="M18730 25064 c-83 -88 -578 -506 -633 -536 -35 -19 -96 -38 -142 -44
-180 -24 -257 -24 -385 -2 -359 64 -630 -17 -766 -228 -44 -69 -97 -185 -133
-293 -32 -95 -36 -178 -10 -220 18 -28 64 -49 94 -43 13 2 68 46 122 98 56 54
111 98 128 102 17 5 66 7 110 6 513 -19 565 -13 760 81 162 78 312 192 523
399 143 141 228 244 295 359 76 130 123 311 93 352 -10 14 -17 9 -56 -31z"/>
<path d="M27818 24835 c-2 -2 -32 -5 -68 -9 -308 -29 -649 -136 -766 -239
-109 -96 -116 -226 -15 -302 23 -18 42 -20 156 -20 72 0 153 4 180 8 149 24
321 47 405 54 115 9 432 9 515 0 200 -23 269 -34 440 -68 176 -36 463 -128
500 -160 5 -5 14 -9 21 -9 7 0 59 -22 116 -49 56 -26 141 -65 188 -86 47 -21
114 -51 150 -68 36 -16 104 -46 151 -67 47 -21 136 -64 199 -95 145 -73 151
-74 144 -29 -18 112 -117 283 -242 419 -168 181 -405 333 -797 508 -199 89
-455 167 -592 182 -32 3 -65 8 -73 10 -47 12 -600 30 -612 20z"/>
<path d="M19610 23688 c-96 -67 -145 -141 -195 -298 -34 -110 -44 -242 -22
-323 37 -142 178 -295 312 -342 37 -13 81 -17 172 -17 67 0 130 3 140 6 10 2
55 8 101 11 l83 7 -6 -34 c-3 -18 -10 -51 -15 -73 -15 -68 -22 -175 -20 -315
1 -197 10 -268 46 -372 67 -197 197 -332 354 -367 92 -20 254 10 371 70 97 49
241 158 369 278 36 33 68 61 72 61 4 0 10 -10 12 -22 37 -199 78 -279 169
-340 114 -76 287 -83 403 -17 76 43 171 128 241 215 18 21 53 65 79 97 25 31
50 57 55 57 6 0 21 -55 35 -128 9 -48 51 -167 80 -226 75 -152 203 -291 316
-345 106 -50 178 -64 323 -64 161 1 280 29 432 103 111 54 131 59 139 33 32
-97 116 -198 192 -230 22 -10 71 -17 123 -19 74 -2 94 2 150 25 36 15 93 46
127 70 57 39 201 174 263 247 44 52 181 235 229 307 25 36 48 67 51 67 3 0 18
-27 34 -61 32 -67 93 -129 152 -155 63 -29 216 -24 327 10 49 14 107 35 130
45 60 27 76 31 76 23 0 -5 -13 -69 -29 -143 -17 -73 -32 -146 -35 -161 -11
-51 -16 -78 -20 -100 -2 -13 -15 -77 -29 -143 -14 -66 -28 -140 -32 -165 -3
-25 -8 -52 -10 -60 -2 -8 -6 -37 -10 -65 -3 -27 -8 -66 -10 -85 -6 -39 -6
-350 -1 -445 2 -33 7 -114 10 -180 11 -205 20 -303 31 -345 2 -8 7 -31 10 -50
15 -86 103 -405 160 -575 52 -156 89 -245 189 -450 112 -229 202 -382 301
-513 79 -105 244 -272 340 -343 138 -103 297 -158 438 -150 28 2 20 35 -19 72
-53 50 -103 121 -166 234 -53 93 -276 543 -365 735 -35 75 -51 111 -108 245
-45 105 -138 449 -169 625 -3 14 -14 70 -25 125 -17 89 -34 177 -46 250 -19
108 -32 183 -39 233 -3 15 -8 47 -12 72 -24 151 -29 222 -29 455 1 204 9 449
20 531 2 16 6 56 9 89 9 89 52 413 61 465 3 14 8 43 11 65 9 58 27 82 121 160
86 71 309 291 360 355 15 19 31 37 34 40 18 14 82 107 123 177 144 250 206
465 181 628 -13 82 -36 135 -78 176 -182 183 -485 -14 -708 -460 -95 -192
-195 -450 -302 -784 l-31 -97 -86 -53 c-162 -102 -281 -158 -382 -182 -89 -20
-97 -7 -122 184 -20 152 -20 174 -1 217 294 666 348 991 179 1074 -49 24 -96
21 -151 -11 -96 -55 -218 -294 -287 -560 -21 -84 -31 -138 -52 -299 -16 -123
-35 -168 -141 -330 -66 -99 -172 -252 -209 -300 -208 -264 -384 -428 -439
-406 -19 7 -42 59 -66 150 -22 85 -53 120 -103 119 -54 -2 -120 -62 -129 -119
-6 -39 -13 -41 -159 -38 -205 4 -282 10 -406 35 -89 18 -149 99 -193 264 -19
68 -22 108 -23 260 -1 196 10 365 29 475 3 14 7 48 10 75 3 28 7 57 9 65 1 8
6 35 10 60 15 92 25 141 53 255 45 188 50 287 16 333 -29 40 -89 66 -153 66
-73 0 -124 -19 -173 -63 -98 -88 -143 -199 -243 -601 -44 -181 -95 -303 -177
-428 -123 -187 -307 -393 -398 -446 -128 -73 -182 -3 -175 228 2 66 6 130 9
141 2 11 8 44 12 74 9 69 31 130 88 251 109 232 150 417 103 469 -11 12 -36
26 -58 33 -32 9 -44 8 -77 -7 -99 -44 -182 -198 -291 -540 -49 -151 -65 -176
-227 -340 -250 -254 -391 -346 -554 -362 -121 -12 -173 35 -223 198 -49 161
-52 368 -10 604 29 167 22 159 198 236 168 75 237 119 332 218 132 135 174
323 103 463 -36 70 -88 112 -166 132 -132 35 -250 -14 -376 -154 -48 -54 -158
-256 -207 -380 -37 -95 -45 -104 -98 -122 -71 -24 -133 -33 -244 -33 -89 0
-98 2 -123 25 -28 26 -55 76 -63 120 -8 39 -7 159 1 230 17 146 19 171 13 205
-4 19 -20 49 -36 67 -17 18 -30 35 -30 38 0 10 -58 40 -77 40 -10 -1 -38 -15
-63 -32z m1228 -261 c21 -25 -7 -106 -51 -148 -40 -39 -139 -109 -154 -109
-20 0 -10 28 41 113 44 74 118 157 140 157 8 0 18 -6 24 -13z m5705 -231 c-10
-106 -79 -270 -169 -406 -99 -150 -315 -391 -322 -358 -5 25 73 326 89 343 5
5 9 16 9 25 0 18 95 165 142 219 17 20 64 72 104 116 99 109 124 138 125 150
0 6 6 -3 13 -19 7 -16 11 -47 9 -70z"/>
<path d="M27663 21288 c-77 -11 -139 -44 -203 -107 -64 -64 -91 -115 -98 -184
-14 -141 73 -234 263 -282 201 -51 368 20 438 186 21 52 16 154 -11 206 -64
124 -236 203 -389 181z"/>
<path d="M22534 18504 c-149 -25 -302 -98 -465 -219 -103 -76 -258 -227 -322
-310 -175 -230 -328 -565 -452 -991 -60 -206 -159 -643 -180 -794 -3 -25 -10
-70 -15 -100 -5 -30 -12 -73 -14 -95 -3 -22 -10 -71 -15 -110 -18 -125 -22
-167 -36 -315 -3 -30 -7 -73 -10 -95 -2 -22 -7 -83 -10 -135 -4 -52 -8 -111
-10 -130 -23 -248 -23 -919 -1 -1165 11 -123 17 -185 22 -223 15 -113 12 -144
-18 -200 -37 -72 -193 -296 -308 -443 -102 -132 -195 -231 -290 -310 -35 -30
-70 -60 -78 -66 -41 -39 -222 -149 -299 -182 -149 -65 -303 -111 -388 -116
-113 -7 -258 75 -310 175 -15 29 -42 119 -50 169 -3 19 -8 37 -10 40 -5 9 -18
151 -16 180 2 33 35 92 269 473 241 393 333 571 435 838 94 246 110 308 111
440 1 106 -1 120 -27 175 -33 70 -65 107 -127 143 -40 24 -55 27 -135 27 -80
0 -97 -4 -158 -33 -165 -77 -285 -195 -365 -356 -104 -211 -199 -532 -257
-871 -2 -16 -7 -39 -9 -50 -2 -11 -7 -45 -12 -75 -4 -30 -8 -57 -9 -60 -1 -5
-10 -73 -20 -160 -13 -107 -32 -334 -34 -421 -2 -49 -240 -327 -330 -383 -50
-32 -213 -96 -243 -96 -65 0 -79 70 -73 360 2 124 6 234 8 245 3 11 8 58 12
105 4 47 8 87 10 90 2 3 6 43 10 89 4 47 8 92 10 100 1 9 6 45 9 81 4 36 9 79
11 95 2 17 6 59 10 95 4 36 8 76 10 90 2 14 9 61 15 106 6 44 12 89 14 100 2
10 6 37 10 59 4 22 21 105 38 185 56 269 66 335 56 389 -17 101 -64 126 -233
126 -113 0 -123 -2 -167 -28 -136 -80 -277 -283 -367 -530 -29 -78 -86 -274
-96 -327 -3 -14 -9 -50 -15 -80 -6 -30 -12 -64 -14 -75 -9 -45 -20 -131 -31
-235 -4 -36 -8 -76 -11 -90 -19 -122 -26 -580 -11 -740 l8 -85 -67 -130 c-79
-155 -110 -211 -135 -247 -11 -14 -19 -29 -19 -32 0 -11 -120 -174 -211 -288
-166 -209 -312 -338 -381 -338 -68 0 -146 211 -184 495 -3 28 -7 57 -9 65 -2
8 -6 51 -10 95 -4 44 -9 94 -11 110 -12 103 -19 337 -19 655 l0 365 43 69 c58
91 69 111 173 311 175 338 307 648 459 1075 26 74 74 200 105 280 125 320 186
497 250 733 9 30 13 48 48 222 20 94 38 188 41 210 4 22 12 78 20 125 16 101
20 570 6 700 -25 221 -97 433 -205 600 -69 107 -156 180 -263 221 -80 29 -86
30 -194 34 -98 4 -158 -8 -248 -47 -49 -22 -134 -107 -197 -198 -17 -25 -65
-88 -107 -140 -154 -190 -214 -359 -391 -1090 -32 -129 -59 -246 -62 -260 -2
-14 -9 -43 -14 -65 -5 -22 -12 -51 -15 -65 -2 -14 -11 -56 -20 -95 -24 -113
-38 -188 -49 -255 -3 -19 -8 -42 -10 -50 -2 -8 -11 -64 -20 -125 -9 -60 -18
-121 -20 -135 -2 -14 -6 -50 -10 -80 -3 -30 -8 -71 -10 -90 -3 -19 -7 -60 -10
-90 -3 -30 -7 -75 -10 -100 -6 -52 -11 -123 -21 -270 -3 -58 -8 -123 -9 -145
-27 -380 -27 -1205 0 -1535 2 -25 6 -86 10 -135 l6 -90 -52 -75 c-98 -140
-399 -511 -504 -621 -104 -110 -380 -343 -550 -464 -15 -11 -39 -29 -54 -40
-107 -82 -428 -282 -511 -319 -8 -3 -31 -16 -50 -27 -19 -12 -109 -59 -200
-104 -172 -87 -259 -120 -423 -160 -217 -54 -274 -54 -462 0 -49 15 -103 30
-120 35 -96 26 -198 79 -290 148 -65 50 -265 247 -360 356 -33 38 -65 74 -70
80 -6 6 -24 29 -40 51 -17 22 -33 42 -36 45 -4 3 -32 46 -64 95 -67 106 -186
347 -246 495 -85 213 -200 580 -233 742 -3 13 -10 48 -15 78 -6 30 -13 66 -16
80 -12 60 -46 263 -51 303 -2 25 -7 55 -9 67 -7 36 -19 190 -19 240 0 42 11
192 19 250 2 14 8 68 14 120 6 52 13 106 15 120 3 14 7 48 10 75 4 28 8 61 11
75 2 14 7 43 10 65 4 22 8 52 11 68 2 15 6 39 8 55 12 76 19 113 32 174 7 37
16 81 19 98 17 96 105 312 280 685 98 209 80 191 195 200 41 3 98 7 125 10 28
3 75 7 105 10 61 5 338 41 385 50 168 32 295 58 321 66 17 5 41 12 53 14 13 2
32 7 44 10 12 3 38 10 57 15 416 111 904 327 1146 505 187 139 284 278 290
415 8 208 -73 316 -346 461 -180 96 -276 120 -481 123 -236 4 -315 -8 -519
-79 -289 -100 -593 -243 -770 -361 -248 -165 -632 -507 -775 -689 -98 -125
-87 -119 -191 -99 -49 9 -100 18 -114 21 -14 2 -68 13 -120 25 -52 11 -105 22
-118 24 -38 7 -114 35 -141 52 -15 9 -55 39 -91 68 -82 65 -100 74 -126 64
-38 -15 -53 -46 -43 -91 16 -70 76 -208 113 -258 84 -114 255 -225 448 -291
l96 -34 -23 -50 c-12 -28 -37 -82 -55 -121 -17 -38 -41 -90 -52 -115 -45 -100
-153 -408 -173 -496 -11 -48 -79 -303 -115 -429 -36 -127 -90 -370 -105 -470
-3 -22 -7 -53 -10 -70 -10 -65 -21 -158 -31 -260 -22 -239 -22 -642 1 -845 2
-19 6 -62 10 -95 3 -33 8 -73 10 -90 2 -16 7 -52 10 -80 4 -27 18 -106 32
-175 14 -69 27 -135 29 -146 9 -48 57 -205 89 -289 74 -200 167 -368 309 -560
44 -60 85 -115 91 -122 5 -6 28 -33 50 -59 145 -176 333 -361 485 -481 234
-184 621 -354 885 -389 28 -3 59 -8 70 -10 55 -12 376 -15 440 -5 39 6 86 14
105 17 127 20 426 104 515 144 22 10 67 30 99 44 97 43 231 122 411 244 94 63
182 124 196 136 14 11 43 35 65 51 122 94 460 422 654 635 52 57 104 113 116
125 11 12 56 64 99 116 44 52 84 99 90 105 5 6 39 48 75 92 62 77 89 98 91 70
0 -7 2 -22 5 -33 2 -11 6 -38 9 -60 3 -22 7 -51 10 -65 3 -14 8 -38 11 -55 14
-82 68 -290 95 -373 76 -230 167 -361 304 -437 156 -87 328 -121 432 -86 51
17 229 130 353 224 174 132 374 412 570 797 19 36 35 67 37 69 1 2 40 -34 87
-81 132 -133 261 -189 420 -184 67 3 85 9 207 67 243 115 351 189 496 338 79
81 83 83 91 60 5 -13 19 -51 31 -84 64 -173 165 -279 351 -369 85 -41 85 -41
210 -42 79 -1 145 3 178 12 96 25 240 88 407 178 78 42 93 51 192 110 168 101
372 285 485 436 99 133 208 304 226 353 16 44 30 60 33 37 1 -5 2 -13 3 -17 3
-10 10 -57 36 -218 12 -71 26 -150 31 -175 11 -46 14 -59 26 -120 4 -19 8 -37
8 -40 1 -3 4 -18 8 -35 4 -16 9 -39 11 -50 15 -75 74 -289 112 -405 96 -292
232 -431 422 -431 121 0 161 20 567 275 270 169 363 242 510 395 263 276 509
685 579 963 71 279 43 519 -81 706 -110 166 -271 274 -443 300 -72 11 -286 2
-310 -13 -3 -2 -21 -6 -40 -9 -51 -8 -163 -41 -242 -72 -257 -98 -472 -249
-660 -464 l-57 -64 4 99 c3 55 7 145 10 199 l5 100 67 120 c136 246 382 744
531 1076 451 1002 718 1732 828 2260 43 210 49 447 14 562 -24 78 -75 165
-111 186 -22 14 -91 41 -119 47 -8 2 -43 10 -77 19 -68 18 -86 18 -189 0z
m297 -306 c35 -144 7 -423 -72 -716 -59 -219 -223 -685 -324 -917 -7 -16 -36
-88 -65 -160 -94 -231 -130 -319 -144 -350 -8 -16 -48 -109 -89 -205 -42 -96
-91 -210 -111 -253 -20 -42 -36 -79 -36 -81 0 -2 -22 -52 -50 -110 -27 -58
-50 -108 -50 -110 0 -6 -112 -240 -190 -396 l-72 -145 6 95 c8 109 15 190 21
240 2 19 7 60 10 90 6 59 14 120 20 160 2 14 7 45 10 70 5 36 38 247 60 380 3
14 16 84 30 155 14 72 27 141 30 156 3 14 18 85 35 158 16 73 32 143 34 155
23 121 135 521 195 698 90 265 230 564 371 793 41 67 103 158 125 181 5 6 22
24 36 40 64 71 141 123 186 124 17 0 23 -9 34 -52z m-5763 -567 c39 -3 102
-187 127 -371 22 -164 22 -744 0 -813 -2 -6 -6 -35 -9 -62 -25 -225 -197 -761
-429 -1335 -176 -435 -197 -484 -208 -495 -7 -7 -9 129 -4 460 13 1054 19
1294 40 1510 11 105 17 162 20 185 2 14 9 61 15 105 41 293 131 583 219 707
76 107 102 120 229 109z m-3234 -250 c26 -6 62 -19 80 -27 37 -19 106 -83 106
-99 0 -33 -351 -315 -570 -458 -207 -135 -495 -257 -690 -294 -14 -2 -43 -8
-65 -13 -48 -11 -278 -46 -350 -54 -147 -16 -165 -17 -165 -6 0 10 50 81 70
100 3 3 39 43 80 90 192 218 392 419 460 463 47 29 281 147 400 200 138 62
223 88 335 103 28 3 51 7 53 9 8 7 213 -4 256 -14z m5986 -2544 c0 -57 -6
-115 -16 -148 -20 -68 -133 -348 -183 -454 -58 -123 -279 -504 -314 -540 -14
-15 -3 91 39 359 49 317 105 514 191 678 59 112 163 197 246 198 l37 0 0 -93z
m2709 -852 c16 -14 42 -51 57 -81 25 -51 26 -61 20 -137 -9 -110 -14 -144 -37
-267 -12 -58 -23 -116 -25 -130 -22 -124 -103 -369 -162 -490 -56 -117 -236
-351 -325 -424 -49 -40 -162 -96 -193 -96 -30 0 -65 38 -101 112 -43 86 -76
231 -98 438 -3 30 -8 62 -10 70 -5 16 -52 427 -61 525 l-6 61 44 42 c163 158
652 399 815 401 41 1 57 -4 82 -24z"/>
<path d="M28008 18346 c-1 -2 -23 -6 -48 -9 -97 -12 -295 -100 -436 -193 -105
-70 -190 -143 -319 -272 -187 -186 -324 -348 -549 -652 -76 -102 -143 -192
-149 -200 -22 -28 -383 -524 -456 -628 -175 -248 -298 -366 -374 -358 -33 4
-72 29 -92 60 -16 25 -48 165 -60 265 -4 30 -8 61 -10 70 -3 17 -16 112 -20
146 -19 160 -51 286 -95 377 -104 215 -331 409 -560 479 -60 19 -202 17 -270
-4 -286 -85 -462 -494 -464 -1077 0 -106 11 -310 18 -331 3 -8 7 -27 10 -44
10 -66 80 -350 127 -515 66 -229 94 -294 394 -915 153 -318 184 -388 367 -840
l149 -370 -5 -165 c-4 -160 -22 -270 -77 -475 -6 -22 -13 -47 -14 -55 -6 -25
-53 -241 -71 -320 -33 -149 -140 -510 -179 -604 -16 -37 19 -11 53 40 31 46
172 324 172 339 0 8 8 26 65 155 115 262 159 369 200 485 26 72 48 137 50 145
1 8 13 47 25 87 12 39 23 80 25 90 2 10 4 18 5 18 2 0 9 41 19 119 9 68 7 331
-4 391 -17 103 -118 385 -227 635 -63 146 -114 283 -162 435 -21 66 -65 192
-98 280 -33 88 -61 167 -63 175 -2 8 -15 46 -30 84 -66 180 -160 556 -180 724
-3 20 -7 48 -10 62 -2 14 -7 54 -10 90 -3 36 -8 88 -11 115 -12 100 -27 309
-27 375 -1 119 30 271 63 304 18 18 19 18 57 -5 121 -75 148 -111 277 -372
104 -209 246 -448 315 -527 49 -57 127 -130 143 -136 10 -3 18 -9 18 -13 0
-17 144 -73 187 -73 116 0 183 34 348 176 44 38 125 100 180 139 152 107 286
207 330 246 55 51 187 172 206 190 8 9 55 52 104 96 48 44 93 85 99 90 6 6 29
25 51 44 66 56 192 172 420 386 72 67 153 143 180 169 28 26 62 54 78 63 15
10 27 20 27 24 0 4 17 18 38 30 20 13 39 26 42 29 19 25 211 92 300 106 19 3
43 8 53 11 17 4 18 -1 16 -49 -8 -162 -163 -553 -309 -783 -85 -133 -313 -470
-368 -545 -43 -59 -266 -325 -292 -350 -3 -3 -32 -36 -65 -75 -33 -38 -62 -72
-65 -75 -3 -3 -52 -63 -108 -135 -57 -71 -108 -137 -115 -145 -21 -26 -171
-232 -223 -305 -80 -112 -235 -350 -314 -480 -70 -115 -84 -139 -131 -222 -12
-21 -25 -42 -29 -48 -15 -19 -148 -291 -208 -425 -32 -74 -69 -155 -80 -180
-209 -453 -569 -1440 -727 -1990 -19 -63 -44 -153 -58 -200 -23 -80 -44 -163
-52 -203 -3 -10 -7 -27 -10 -37 -3 -10 -8 -27 -10 -37 -30 -128 -52 -226 -81
-368 -19 -93 -50 -231 -69 -305 -37 -151 -61 -276 -69 -365 -3 -33 -8 -87 -11
-121 -8 -88 -15 -556 -16 -1119 -1 -547 2 -613 37 -765 9 -36 18 -76 20 -89 3
-13 11 -39 19 -57 11 -28 19 -34 43 -34 57 0 60 17 67 315 3 121 7 231 9 245
2 14 7 52 10 85 4 33 8 71 10 85 4 25 12 81 21 150 2 19 16 114 29 210 14 96
28 195 31 220 6 40 38 241 52 325 2 17 14 73 25 125 11 52 21 104 23 115 1 11
10 49 18 85 9 36 18 76 21 90 2 14 12 57 21 95 9 39 18 77 20 85 2 8 15 67 30
130 15 63 28 122 30 130 10 45 29 127 52 220 14 58 26 112 28 120 2 8 11 44
20 80 9 36 18 73 20 82 13 63 105 375 158 534 112 333 112 332 494 1104 267
539 418 833 478 930 12 19 39 67 60 105 21 39 80 140 130 225 51 85 165 279
255 430 158 267 573 959 641 1070 19 30 37 57 42 58 4 2 7 8 7 13 0 16 244
390 501 769 192 283 305 481 456 805 114 245 139 338 141 537 2 238 -62 415
-203 552 -94 92 -224 161 -340 181 -44 7 -201 15 -207 11z"/>
<path d="M6654 17528 c-71 -18 -119 -107 -107 -196 12 -87 87 -189 170 -231
108 -54 631 -207 808 -236 110 -18 526 -26 660 -12 162 16 371 63 506 113 182
68 232 216 97 285 -50 25 -122 28 -368 14 -266 -15 -624 -10 -750 11 -56 9
-238 50 -321 72 -71 19 -187 58 -435 146 -104 37 -201 50 -260 34z"/>
<path d="M8675 16419 c-92 -26 -328 -142 -485 -238 -8 -5 -67 -40 -130 -78
-130 -76 -466 -299 -642 -425 -234 -167 -734 -534 -807 -592 -159 -125 -281
-270 -317 -377 -13 -37 -13 -44 1 -66 14 -21 22 -24 56 -19 22 3 44 8 48 10 4
3 18 7 32 9 115 21 288 102 509 236 152 93 274 166 308 186 76 45 230 140 407
253 116 74 226 144 245 156 19 11 40 24 45 29 6 4 120 80 255 168 299 197 384
253 390 259 3 3 59 41 125 85 241 161 304 223 291 289 -24 117 -157 164 -331
115z"/>
<path d="M9260 15503 c-98 -34 -304 -189 -464 -349 -267 -268 -452 -545 -646
-969 -57 -125 -173 -480 -196 -599 -2 -12 -6 -32 -9 -46 -14 -61 -34 -169 -40
-210 -3 -25 -10 -70 -15 -100 -15 -91 -20 -139 -27 -255 -13 -214 -5 -788 13
-935 8 -67 51 -187 89 -250 63 -104 136 -160 206 -160 39 0 63 28 120 145 57
117 93 252 114 430 3 28 8 61 10 75 2 14 7 48 10 75 8 83 14 125 29 240 24
179 28 209 42 335 3 30 7 69 9 85 8 58 15 121 20 180 4 33 8 71 10 85 2 14 6
50 10 80 5 49 28 187 39 246 2 12 7 38 10 59 30 187 142 512 264 765 104 216
187 348 391 618 193 256 217 290 232 335 34 102 -86 168 -221 120z"/>
</g>
</svg>
