<svg width="13" height="12" viewBox="0 0 13 12" fill="none" xmlns="http://www.w3.org/2000/svg">
<path d="M3.03779 0.0131953C2.72821 0.0506585 2.31156 0.177457 2.02907 0.320106C1.63693 0.517508 1.33121 0.755256 1.0126 1.1126C0.350862 1.85322 0 2.80565 0 3.85894C0 4.47709 0.109644 5.01742 0.348282 5.58369C0.939071 6.98424 2.50763 8.80121 4.72761 10.6614C5.50415 11.3113 6.41742 12 6.50513 12C6.59543 12 7.71509 11.1441 8.48131 10.4899C10.6097 8.67153 12.0531 6.97704 12.6465 5.59954C12.8387 5.15431 12.9329 4.78976 12.9845 4.29698C13.0103 4.04914 13.0025 3.49728 12.9716 3.27826C12.9109 2.8604 12.8077 2.4973 12.6491 2.13707C12.1473 0.998767 11.2069 0.223566 10.1002 0.0333678C9.90798 0.000227219 9.5339 -0.00985904 9.33267 0.0103135C8.57419 0.0895627 7.87504 0.42385 7.19138 1.03191C7.10624 1.10828 6.91533 1.30424 6.76699 1.4685L6.49868 1.76676L6.41742 1.67167C6.37356 1.61835 6.32196 1.55495 6.3039 1.5319C6.25102 1.45985 5.92466 1.13133 5.77503 1.00021C5.17134 0.465636 4.53799 0.147198 3.85432 0.0319269C3.69308 0.0045499 3.20032 -0.00697726 3.03779 0.0131953Z" fill="#FF5959"/>
</svg>
