<svg width="50" height="50" viewBox="0 0 50 50" fill="none" xmlns="http://www.w3.org/2000/svg">
<path fill-rule="evenodd" clip-rule="evenodd" d="M25 50C38.8071 50 50 38.8071 50 25C50 11.1929 38.8071 0 25 0C11.1929 0 0 11.1929 0 25C0 38.8071 11.1929 50 25 50ZM12.5 19.6959C12.5 15.7279 15.7283 12.5 19.6959 12.5H30.3041C34.2721 12.5 37.5 15.7283 37.5 19.6959V30.4014C37.5 34.369 34.2721 37.5973 30.3041 37.5973H19.6959C15.7279 37.5973 12.5 34.369 12.5 30.4014V19.6959ZM18.4942 25.0027C18.4942 21.4424 21.4219 18.5461 25.0199 18.5461C28.6178 18.5461 31.5456 21.4424 31.5456 25.0027C31.5456 28.5626 28.6178 31.4589 25.0199 31.4589C21.4215 31.4589 18.4942 28.5626 18.4942 25.0027ZM20.8711 25.0027C20.8711 27.2517 22.7321 29.0819 25.0199 29.0819C27.3077 29.0819 29.1686 27.2521 29.1686 25.0027C29.1686 22.7533 27.3073 20.9235 25.0199 20.9235C22.7321 20.9235 20.8711 22.7533 20.8711 25.0027ZM31.6624 19.8178C32.5104 19.8178 33.1978 19.1303 33.1978 18.2823C33.1978 17.4344 32.5104 16.7469 31.6624 16.7469C30.8144 16.7469 30.127 17.4344 30.127 18.2823C30.127 19.1303 30.8144 19.8178 31.6624 19.8178Z" fill="black"/>
</svg>
