<svg width="29" height="29" viewBox="0 0 29 29" fill="none" xmlns="http://www.w3.org/2000/svg">
<g clip-path="url(#clip0_25_332)">
<path d="M16.269 28.681C8.526 28.681 2.204 22.359 2.204 14.616C2.204 6.87299 8.526 0.550995 16.269 0.550995C18.85 0.550995 21.344 1.24699 23.548 2.58099C23.751 2.69699 23.809 2.987 23.693 3.19C23.577 3.393 23.287 3.451 23.084 3.335C21.025 2.088 18.676 1.44999 16.269 1.44999C8.99 1.42099 3.074 7.337 3.074 14.616C3.074 21.895 8.99 27.811 16.269 27.811C23.548 27.811 29.464 21.895 29.464 14.616C29.464 13.688 29.377 12.76 29.174 11.861C29.116 11.629 29.261 11.397 29.522 11.339C29.754 11.281 29.986 11.426 30.044 11.687C30.247 12.644 30.363 13.63 30.363 14.616C30.334 22.359 24.041 28.681 16.269 28.681Z" fill="#FF5959" fill-opacity="0.89"/>
<path d="M16.269 18.531C16.153 18.531 16.037 18.473 15.95 18.415L8.932 11.368C8.758 11.194 8.758 10.933 8.932 10.759C9.106 10.585 9.367 10.585 9.541 10.759L16.269 17.487L29.841 3.56699C30.015 3.39299 30.276 3.39299 30.45 3.56699C30.624 3.74099 30.624 4.00199 30.45 4.17599L16.588 18.386C16.501 18.473 16.385 18.531 16.269 18.531Z" fill="#FF5959" fill-opacity="0.89"/>
</g>
<defs>
<clipPath id="clip0_25_332">
<rect width="29" height="29" fill="white"/>
</clipPath>
</defs>
</svg>
