<svg width="13" height="12" fill="none" xmlns="http://www.w3.org/2000/svg"><path d="M3.038.013c-.31.038-.726.164-1.009.307a3.262 3.262 0 00-1.016.793C.35 1.853 0 2.806 0 3.859c0 .618.11 1.158.348 1.725.591 1.4 2.16 3.217 4.38 5.077.776.65 1.69 1.339 1.777 1.339.09 0 1.21-.856 1.976-1.51 2.129-1.818 3.572-3.513 4.165-4.89.193-.446.287-.81.338-1.303.026-.248.018-.8-.012-1.019a4.285 4.285 0 00-.323-1.14C12.147.997 11.207.223 10.1.032A3.68 3.68 0 009.333.01C8.574.09 7.875.424 7.19 1.032a7.62 7.62 0 00-.424.436l-.268.299-.082-.095a11.145 11.145 0 01-.113-.14A6.88 6.88 0 005.775 1C5.171.466 4.538.147 3.855.032a4.684 4.684 0 00-.817-.019z" fill="#FF5959"/></svg>