<svg width="50" height="50" fill="none" xmlns="http://www.w3.org/2000/svg"><path fill-rule="evenodd" clip-rule="evenodd" d="M25 50c13.807 0 25-11.193 25-25S38.807 0 25 0 0 11.193 0 25s11.193 25 25 25zM12.5 19.696c0-3.968 3.228-7.196 7.196-7.196h10.608c3.968 0 7.196 3.228 7.196 7.196V30.4c0 3.968-3.228 7.196-7.196 7.196H19.696c-3.968 0-7.196-3.228-7.196-7.196V19.696zm5.994 5.307c0-3.56 2.928-6.457 6.526-6.457s6.526 2.896 6.526 6.457c0 3.56-2.928 6.456-6.526 6.456s-6.526-2.896-6.526-6.456zm2.377 0c0 2.249 1.861 4.079 4.149 4.079 2.288 0 4.149-1.83 4.149-4.08 0-2.249-1.862-4.078-4.15-4.078-2.287 0-4.148 1.83-4.148 4.079zm10.791-5.185a1.535 1.535 0 100-3.071 1.535 1.535 0 000 3.07z" fill="#000"/></svg>