<svg width="29" height="29" fill="none" xmlns="http://www.w3.org/2000/svg"><g clip-path="url(#clip0_25_332)" fill="#FF5959" fill-opacity=".89"><path d="M16.269 28.681c-7.743 0-14.065-6.322-14.065-14.065C2.204 6.873 8.526.551 16.269.551c2.581 0 5.075.696 7.279 2.03.203.116.261.406.145.609-.116.203-.406.261-.609.145a13.116 13.116 0 00-6.815-1.885C8.99 1.421 3.074 7.337 3.074 14.616c0 7.279 5.916 13.195 13.195 13.195s13.195-5.916 13.195-13.195c0-.928-.087-1.856-.29-2.755-.058-.232.087-.464.348-.522.232-.058.464.087.522.348.203.957.319 1.943.319 2.929-.029 7.743-6.322 14.065-14.094 14.065z"/><path d="M16.269 18.531a.608.608 0 01-.319-.116l-7.018-7.047a.42.42 0 010-.609.42.42 0 01.609 0l6.728 6.728 13.572-13.92a.42.42 0 01.609 0 .42.42 0 010 .609l-13.862 14.21a.466.466 0 01-.319.145z"/></g><defs><clipPath id="clip0_25_332"><path fill="#fff" d="M0 0h29v29H0z"/></clipPath></defs></svg>