<svg version="1.0" xmlns="http://www.w3.org/2000/svg" width="4857.333" height="4857.333" viewBox="0 0 3643 3643"><path d="M2520.8 804c-2.6 2.6-2.7 3.2-2.4 10.6.2 4.4.8 9.7 1.4 11.9.6 2.2 1.4 5.6 1.7 7.5.3 1.9.7 4.6 1 6 .3 1.4.7 4.1 1 6 .6 3.2 7.1 35.7 8.1 40.5.3 1.1 1.4 6.7 2.5 12.5 1 5.8 2.2 11.6 2.4 13 .3 1.4.8 4.7 1.1 7.5.4 2.7.8 5.3 1 5.6 1.8 3.1 2.6 69 1 88.9-.6 8.8-2.9 26.2-4.1 32-.3 1.4-.8 4.1-1.1 6-1.1 5.7-1.1 6.1-3.4 16-1.1 5.2-3 13.1-4.1 17.5-1.2 4.4-2.3 9.1-2.5 10.5-.3 1.4-.9 4.1-1.4 6-5 18.9-1.4 25.3 10.1 17.9 4.3-2.7 10.2-9.4 13.5-15.4 16.2-28.6 29.2-68.2 33.9-102.5.3-2.5.8-5.7 1-7.1 1.5-8.8 2.2-50.7 1.1-61.4-1.7-16.3-4-29.1-9.2-50.2-6.4-26.5-11.8-38.6-27.4-61.6-13.3-19.7-19.1-23.7-25.2-17.7zM887.1 938.2c-3.8 4-13.3 30.2-14.7 40.3-.3 2.2-.7 4.6-1 5.3-1.9 5.8-2.7 48.5-1.2 62.4.8 6.9 4.1 23.5 5.7 27.8.5 1.4 1.5 4.5 2.2 7 .7 2.5 1.6 4.9 1.9 5.5.4.5 1.7 3.7 3 7 2.9 7.5 16.5 34.3 18.5 36.5.8.9 1.5 1.9 1.5 2.3 0 .3 1.3 2.6 3 5l3 4.4-15.3 23.1c-8.3 12.7-15.9 24.3-16.8 25.9-1 1.5-4.7 7.7-8.4 13.8-22.9 37.8-44.3 96.1-53.1 144.5-.4 1.9-.8 4.2-.9 5-.2.8-1.2 6.2-2.3 12-1.2 5.8-2.3 12.7-2.6 15.5-.6 4.9-1.5 11.1-2.2 15-.2 1.1-.6 4.9-.9 8.5-.4 3.6-.8 7.2-1 8-.2.8-.7 4.9-1 9-.3 4.1-.8 9.1-1 11-2.4 19.9-2.4 84.9 0 103 .2 1.4.6 5.2.9 8.5.4 3.3.9 6.9 1.1 8 .2 1.1.7 4.2 1 7 .4 2.7 1.8 10.2 3.1 16.5 1.4 6.3 2.7 12.5 2.9 13.6 2.2 10.4 18 49.1 27.7 67.9 7.5 14.4 11.1 21.1 12.4 22.6.8.8 1.4 1.9 1.4 2.3 0 .8 7 10.5 11.3 15.6 5.5 6.6 19.2 20.3 26.2 26.3 3.9 3.3 7.2 6.3 7.5 6.7 1.1 1.3 21.8 15.9 27 19 18.6 11.1 32.8 15.7 62 20.4 3.6.6 4.4.7 21.5 2.6 5.5.6 11 1.3 12.1 1.5 12.1 2 42.3 2.6 52.9 1.2 22.7-3.2 45.5-10.6 69.5-22.7 14-7.1 34.1-20.5 43.5-29.1 1.7-1.6 4.1-3.7 5.5-4.9 3.2-2.7 22.7-21.9 26.1-25.8 1.5-1.6 5-5.6 7.9-8.8 9.4-10.6 10.4-11.8 17.6-21.5 6.6-9.1 13.6-19.7 24.9-38.2 2.6-4.2 5.1-7.7 5.5-7.7.4 0 1.1 1 1.4 2.2 1.3 4.6 7.5 29.4 8 31.8.2 1.4 1.6 7.7 3 14 2.3 10.7 4.9 23.2 6 29 .2 1.4 1.6 8.8 3 16.5 4.7 25.3 8.6 39.9 12.8 47.4 2.4 4.4 7.7 10.1 9.4 10.1 1.7 0 6.4-5.8 8.4-10.5 1.9-4.4 5.6-19.6 6.6-26.6 1-7.7 1.2-42.1.3-49.9-.4-4.1-1.1-10.1-1.4-13.3-.4-3.2-.8-6.8-1.1-8-.2-1.2-.8-4.7-1.4-7.7-.5-3-1.1-6.6-1.4-8-.5-3-2.1-10.1-4.2-19-.9-3.6-3.6-13.4-6-21.9l-4.5-15.3 2.7-4.1c8.1-12.3 22.8-20 33.7-17.5 7.8 1.7 14.1 8.8 17.3 19.4 1.8 6.2 4.9 23.5 7.9 44.9 1.1 8 2.5 18.1 3.1 22 .2 2.2.9 6.5 1.4 9.5.5 3 1.2 7.1 1.5 9 .3 1.9.8 4.6 1 6 .3 1.4.7 3.4.9 4.5 1.9 10 6.1 21.7 10.1 28 4 6.3 7.7 10 13.5 13.3 8.7 5.2 24.5 3.5 36.9-4 15.8-9.4 55.4-52.3 74-80l5.2-7.7 8.7 6.8c4.8 3.8 10.5 7.8 12.7 8.9 15.3 7.7 47.3 10.4 60.8 5.3 13.6-5.3 27.1-17.7 39.5-36.1 10.7-16.1 25.7-43.4 40.2-73.4 5.3-11 10-19.4 10.3-18.9.4.6 2.3 5.6 4.2 11.1 10 28.7 14.8 38.2 20.2 40.3 2 .8 4.3.6 9.1-.7 9.6-2.6 9.7-3 9.7-25.4-.1-10.2-.4-21-.8-24s-1-8.2-1.2-11.5c-.6-6.5-1.1-10.8-2.5-20-.5-3.3-1.2-8-1.5-10.5-.3-2.5-.8-5.2-1-6-.2-.8-.7-3.5-1-6-.2-2.5-.7-5.4-.9-6.6-1.1-5.5-1.9-13.4-1.9-18.4 0-17.3 6.8-48.6 13.8-63.5 3.7-7.9 10.5-15.5 13.8-15.5 5.2.1 10 7.5 12.7 19.7 1.8 7.6 10.9 52.2 12.5 60.8.3 1.6 1.2 6.8 2.1 11.5.9 4.7 1.7 9.6 1.9 10.8.2 1.3.8 4.5 1.4 7 1.2 5.7 4.8 26.9 5.6 33.7.3 2.7.8 6.1 1 7.5.2 1.4.6 4.7 1 7.5 1.6 13.1 4.4 19.7 9.1 22 4.1 1.9 5.9 1.9 9.4-.2 3.7-2.1 5.5-7.7 4.5-14-1.3-8.4-1.5-9.6-2.2-19.8-1.2-17.6-.8-43.1 1.2-61 1-9.5 1.6-14.2 2-16.8.3-1.5 1-5.5 1.5-9 5-29.4 15.3-63.4 22.7-75.2 2.7-4.3 9.6-10.1 12.7-10.7 1.3-.2 2.8.8 4.4 3.2 2.3 3.3 2.4 4.1 1.8 13.5-.4 6.9-1.9 15.6-5.1 28.3-2.5 10.1-4.7 19.4-4.9 20.5-.3 1.2-.7 3.1-1 4.2-2 7.7-6.4 31.1-7.1 37.5-.1 1.4-.5 4.7-.9 7.5-1.2 9.1-1.7 14.3-3.2 33.5-.7 9.5-.8 10.8-2 34-1.6 30.4-.9 114.4 1.1 134 2.1 20.1 2.4 22.8 3.6 29.5 5.4 31 19 53.7 40.2 66.9 8.4 5.2 19.9 9.4 26.8 9.7 14.8.7 25-5.2 37.3-21.5 9.7-12.9 32-49.7 41.5-68.4.8-1.7 2.2-4.8 4-9.5.5-1.2 1.4-3.6 2.1-5.2 5.2-12.6 25-76 28-89.5.7-3 1.6-6.6 1.9-8 1.1-3.7 1.4-22 .4-22-.4 0-2.8 4.2-5.2 9.3-4.6 9.6-5.7 11.7-21.3 38.7-10.4 18.1-11.5 20.1-29.6 53.5-15.4 28.4-24.3 43.6-31.7 54-6.5 9.2-9.6 12.4-16.7 17.1-4.7 3.2-5.2 3.3-6.8 1.9-4.3-3.9-10.6-23.3-13-40.1-3-21.2-3.2-56.6-.5-90.9.2-3.3.7-9.6 1-14 .3-4.4.8-9.1 1-10.5.2-1.4.6-5.7 1-9.5.6-6.6.8-8.6 2-17.1.3-1.9.7-5.6 1-8.2.3-2.6.8-5.4 1-6.2.2-.8.7-4 1-7 .3-3 .8-6.2 1-7 .2-.8.7-4 1-7 .3-3 .8-6.2 1-7 .2-.8.6-3.4.9-5.8 1.1-8.1 1.6-11.8 2.1-14.2.2-1.3.9-5.8 1.5-9.9.6-4.2 1.2-8.7 1.4-10.1.6-3.4 1.7-11.7 2.2-15.9.2-1.9.5-4.8.8-6.5.3-1.7.7-5.8 1.1-9.1.3-3.3.8-8 1.1-10.4.7-6.2.7-28.7-.1-34.6-4.2-32.5-8.7-46.7-18.3-57.1-7.4-8.1-15.3-11.6-27.2-11.9-21.4-.5-39.9 13.4-52.9 40-2.8 5.6-5.7 12.1-6.6 14.5-6.4 17.7-10.2 29.6-13.7 43-2.2 8.5-4.3 16.1-4.8 16.9-.4.8-1.2-1.2-1.9-5-2.7-13.5-9-37.1-11.5-42.4-3.8-8.3-11.9-16-19.1-18.1-10-2.8-18.4-.8-26.1 6.4-7.3 6.7-12.9 17-18.3 33.4-1.8 5.4-3.6 9.8-4.1 9.8-1.1 0-5.9-20.2-6.5-27.2-1-10.6-5.3-18.5-12.1-21.8-5.2-2.6-9-2.5-13.4.1-13.4 8-17.6 26.5-13.5 58.4 1.5 11.1 1.6 11.4 4.6 26.5.6 3 3.3 14.7 6 26s5.2 21.6 5.5 22.9c.3 1.3-.2 3.4-1.3 5-1 1.4-2.2 3.4-2.8 4.4-.5.9-3.8 6.3-7.2 12-11.5 19.2-29.3 50-29.3 50.9 0 .4-.4.8-1 .8-.5 0-1 .5-1 1 0 1.3-13.3 22.6-20.4 32.5-11 15.6-20.4 25.5-27.3 28.7-11.1 5-26.4 1.8-35.6-7.5-4.8-4.8-10.5-15-10.9-19.3-.1-2.5 5.4-15.4 8.2-18.9 1-1.3 13.1-25.3 16.5-33 8.3-18.2 23.2-55.1 27.8-68.5 3.5-10.4 3.8-13 4.2-33.5l.4-18-3.8-11.5c-5.4-16.1-10.2-25.4-14.9-28.4-4.2-2.8-19-7.6-24.2-8-14.3-1-35.2 10.8-44.2 25-2.9 4.5-15.8 27.4-15.8 28 0 .2-1.3 3.1-3 6.6-6.2 13.2-12.8 38.2-15.4 58.1-1.3 10.3-1.5 43.1-.2 51.7 3.4 23.2 11.4 46.7 21.2 62.2 1.3 2.1 2.4 4.3 2.4 5 0 3.2-24.2 36.3-39 53.3-9.9 11.3-29.9 30.3-34.8 32.9-6.8 3.6-13.3 3.8-16.9.4-5.4-5-9.6-16.1-12.7-33.3-.3-1.7-.8-4.1-1.1-5.5-.3-1.4-.7-3.9-1-5.5-.3-1.7-1-5-1.5-7.5s-1.2-5.6-1.4-7c-2.2-13.7-8.6-47.1-10.2-53.9-2.5-10.1-7-18.8-13-24.8-10.1-10.2-26.3-15.2-38.6-11.8-1.6.4-2.8.3-2.8-.2 0-1.6 4.6-14.4 9-24.8 2.2-5.5 4.9-11.8 5.7-14 2.1-5.2 12-24.2 16.8-32.5 11-18.7 26.3-34.7 37.9-39.5 5.4-2.3 6.6-.6 9.2 12 .2 1.1 1.3 5 2.4 8.7 5.1 16.3 16.3 22.6 25.1 14.2 6-5.8 5.9-20.3-.2-39.4-4.5-14.3-11.6-22-21.9-23.7-6-1-7.3-.9-13.3.4-14 3.1-28 14.2-46.2 36.4-2.8 3.4-11.6 16.7-13.9 20.9-7.4 14-9.8 18.9-14.4 29.5-6.3 14.7-8.6 20.9-16.7 44.2-7.3 20.8-7.5 21.4-8.6 18.7-2-5.2-.9-14.1 4.1-30.9 2.7-9.4 5.5-18.8 6.1-21 .6-2.2 1.7-6 2.5-8.5 1.4-4.6 12.3-47.9 13-51.5.2-1.1.6-3.3 1-4.8 1.8-8.6 2.7-22.6 2.7-45.2.1-26.9-.6-36-3.8-48.5-6.7-26.5-11.3-36.8-20-45.6-8.1-8-12.8-9.7-28.5-10-13.1-.2-17.8.9-25.4 5.9-5.4 3.6-16.6 14.6-21.1 20.6-4.5 6.1-8.9 20.1-10.1 32-.7 6.7-.6 31.8.1 38.1.2 1.9.7 6.9 1 11 .3 4.1.7 8.2 1 9 .2.8.7 4.2 1 7.5.4 3.3.8 6.7 1 7.5.2.8.7 3.5 1 6 1.2 8.7 1.3 9.3 6.5 36.5 1.1 6 2.2 11.9 2.4 13 2.8 14.8 20 88.3 22.4 95.5.7 2.2-.1 4.4-5.1 13-3.3 5.8-7.1 12.5-8.4 14.8-1.4 2.4-3.8 6.5-5.3 9-1.6 2.6-4.1 6.7-5.6 9.2-4.6 7.7-16.4 24-22.8 31.4-8.8 10.4-46.2 48-52.2 52.7-7.1 5.4-20.6 10.6-32.9 12.4-2.2.4-5.8 1-8 1.5-5.2 1.1-22.8 2.3-33.5 2.3-21.1-.1-44-4.5-61.5-11.8-22.9-9.6-75.1-42.4-88.8-55.8-6.6-6.5-8.3-8.9-13.6-19.8-9-18.7-17.4-40.2-25.9-66.9-3.4-10.5-10.7-38.5-11.6-44-.3-1.9-.8-4.6-1.1-6-1.8-9.1-2.5-13.2-3.1-18.5-.4-3.3-.8-6.8-1-7.7-2.6-14.8-2.6-76.3.1-102.3 1.3-12 1.7-15.9 3.1-25 2.9-20.2 6-35 10.9-52.5 1.9-6.9 3.7-13.3 4-14.3 1.4-6 11.9-29.6 19.1-43.2 4.6-8.8 14.3-27.7 21.3-42 7.1-14.3 13.7-26.8 14.7-27.7 1.8-1.5 2.3-1.4 9.3 1.8 17.7 8.4 31.5 11.3 53.6 11.2 13.2 0 24.2-.9 39.2-3.3 3.6-.6 14.5-3.2 26.8-6.4 1.7-.4 8-2.9 14.1-5.5 26.9-11.3 52.1-30.3 76.1-57.2 6.8-7.7 9.9-11.9 14.1-19.7 2.9-5.2 7.4-15.9 7.4-17.4 0-.4.4-1.5.9-2.4.4-.9 1-2.7 1.3-4 .3-1.3.8-3.5 1.1-4.9.4-1.4.9-7 1.2-12.6.6-11-.9-19.1-5-27.3-2.7-5.5-10.4-13.4-15.5-16-2.1-1.1-7.2-4.5-11.3-7.6-14-10.7-22.9-13.8-38.9-13.8-6.8 0-12.8.6-17 1.7-3.6 1-7.2 1.9-8 2.1-2.6.6-18.9 7.9-35 15.8-48.5 23.5-61.8 30.3-70.7 36.3-8.8 5.9-19.1 13.9-21.8 16.8-.5.6-2.6 2.4-4.5 4-1.9 1.5-5.3 4.5-7.5 6.5-2.2 2.1-9.1 8.4-15.4 14.1l-11.5 10.4-4-4.6c-6.2-6.8-20.7-29-26.4-40.4-2.9-5.8-8.8-23.7-10.6-32.4-1.3-6.2-1.5-12.6-1.2-36 .3-15.7.8-31.2 1.2-34.5.4-3.3.7-9.1.8-12.8.1-6.4-.1-7.1-2.6-9.1-3.7-2.9-7.3-3.1-9.7-.4zm248.5 104.8c7.2 2.4 11.8 9.3 10.7 16.2-.8 5.7-6.3 17.6-11.1 24.1-6.2 8.4-23.4 25.4-30.5 30.1-12.7 8.3-40.8 19.7-61.9 25.2-19.5 4.9-27.2 5.7-39.3 3.8-8.4-1.3-13.5-2.7-13.5-3.6 0-3.8 19.7-23.8 61.5-62.2 11.5-10.5 25.1-18.4 46.5-26.9 19.7-7.9 29-9.5 37.6-6.7zm160.4 288.9c8 4.8 12.7 17.2 14.8 39.1 1.1 12 .7 49.8-.6 57-.7 3.6-1.4 7.6-1.6 9-.2 1.4-1.4 7-2.6 12.5-1.2 5.5-2.4 11.1-2.6 12.5-.4 2.3-4.8 20.2-7.6 30.7-1.5 5.7-3.1 5.7-4.2.2-1.7-9.3-7.1-29.5-15.2-56.4-5.6-19-10.1-36.4-11-43-.3-2.2-1-5.8-1.4-8-.9-4.2-.6-17.9.5-23 1.9-8.8 11.1-27.3 15.7-31.8 2.6-2.5 3.4-2.8 7.1-2.2 2.3.4 6.2 1.9 8.7 3.4zm281.8 84.6c.9.9.8 17-.1 26.5-1.9 18.5-7.6 47.1-12.6 63.5-3.7 11.8-12.1 31-18.8 43.1-1.8 3.2-2.8 4.2-3.3 3.3-2.3-4.2-2.7-51.4-.6-70.4 1.9-16.6 1.9-17 4.5-29.5 4.3-20.7 9.8-31.1 19.1-36.4 3.3-1.9 4.9-2.2 7.7-1.6 1.9.5 3.8 1.1 4.1 1.5zM2724.7 1026.7c-13.1 12.4-32.4 32.2-41.2 42.3-15 17.3-44.8 57.2-49 65.6-4 8.1-4.3 11.1-1.5 14.2 5.1 5.4 12.3 3.7 21.2-5 8-7.8 25.1-30.6 41.2-54.8 3.1-4.7 6-9 6.4-9.5 4.5-5.6 26.7-45.2 30.7-54.8 1.4-3.4 1.4-3.7-.1-3.7-.8 0-4.3 2.6-7.7 5.7z"/><path d="M1873 1136.6c-8.3 8.8-57.8 50.6-63.3 53.6-3.5 1.9-9.6 3.8-14.2 4.4-18 2.4-25.7 2.4-38.5.2-35.9-6.4-63 1.7-76.6 22.8-4.4 6.9-9.7 18.5-13.3 29.3-3.2 9.5-3.6 17.8-1 22 1.8 2.8 6.4 4.9 9.4 4.3 1.3-.2 6.8-4.6 12.2-9.8 5.6-5.4 11.1-9.8 12.8-10.2 1.7-.5 6.6-.7 11-.6 51.3 1.9 56.5 1.3 76-8.1 16.2-7.8 31.2-19.2 52.3-39.9 14.3-14.1 22.8-24.4 29.5-35.9 7.6-13 12.3-31.1 9.3-35.2-1-1.4-1.7-.9-5.6 3.1zM2781.8 1159.5c-.2.2-3.2.5-6.8.9-30.8 2.9-64.9 13.6-76.6 23.9-10.9 9.6-11.6 22.6-1.5 30.2 2.3 1.8 4.2 2 15.6 2 7.2 0 15.3-.4 18-.8 14.9-2.4 32.1-4.7 40.5-5.4 11.5-.9 43.2-.9 51.5 0 20 2.3 26.9 3.4 44 6.8 17.6 3.6 46.3 12.8 50 16 .5.5 1.4.9 2.1.9.7 0 5.9 2.2 11.6 4.9 5.6 2.6 14.1 6.5 18.8 8.6 4.7 2.1 11.4 5.1 15 6.8 3.6 1.6 10.4 4.6 15.1 6.7 4.7 2.1 13.6 6.4 19.9 9.5 14.5 7.3 15.1 7.4 14.4 2.9-1.8-11.2-11.7-28.3-24.2-41.9-16.8-18.1-40.5-33.3-79.7-50.8-19.9-8.9-45.5-16.7-59.2-18.2-3.2-.3-6.5-.8-7.3-1-4.7-1.2-60-3-61.2-2zM1961 1274.2c-9.6 6.7-14.5 14.1-19.5 29.8-3.4 11-4.4 24.2-2.2 32.3 3.7 14.2 17.8 29.5 31.2 34.2 3.7 1.3 8.1 1.7 17.2 1.7 6.7 0 13-.3 14-.6 1-.2 5.5-.8 10.1-1.1l8.3-.7-.6 3.4c-.3 1.8-1 5.1-1.5 7.3-1.5 6.8-2.2 17.5-2 31.5.1 19.7 1 26.8 4.6 37.2 6.7 19.7 19.7 33.2 35.4 36.7 9.2 2 25.4-1 37.1-7 9.7-4.9 24.1-15.8 36.9-27.8 3.6-3.3 6.8-6.1 7.2-6.1.4 0 1 1 1.2 2.2 3.7 19.9 7.8 27.9 16.9 34 11.4 7.6 28.7 8.3 40.3 1.7 7.6-4.3 17.1-12.8 24.1-21.5 1.8-2.1 5.3-6.5 7.9-9.7 2.5-3.1 5-5.7 5.5-5.7.6 0 2.1 5.5 3.5 12.8.9 4.8 5.1 16.7 8 22.6 7.5 15.2 20.3 29.1 31.6 34.5 10.6 5 17.8 6.4 32.3 6.4 16.1-.1 28-2.9 43.2-10.3 11.1-5.4 13.1-5.9 13.9-3.3 3.2 9.7 11.6 19.8 19.2 23 2.2 1 7.1 1.7 12.3 1.9 7.4.2 9.4-.2 15-2.5 3.6-1.5 9.3-4.6 12.7-7 5.7-3.9 20.1-17.4 26.3-24.7 4.4-5.2 18.1-23.5 22.9-30.7 2.5-3.6 4.8-6.7 5.1-6.7.3 0 1.8 2.7 3.4 6.1 3.2 6.7 9.3 12.9 15.2 15.5 6.3 2.9 21.6 2.4 32.7-1 4.9-1.4 10.7-3.5 13-4.5 6-2.7 7.6-3.1 7.6-2.3 0 .5-1.3 6.9-2.9 14.3-1.7 7.3-3.2 14.6-3.5 16.1-1.1 5.1-1.6 7.8-2 10-.2 1.3-1.5 7.7-2.9 14.3-1.4 6.6-2.8 14-3.2 16.5-.3 2.5-.8 5.2-1 6-.2.8-.6 3.7-1 6.5-.3 2.7-.8 6.6-1 8.5-.6 3.9-.6 35-.1 44.5.2 3.3.7 11.4 1 18 1.1 20.5 2 30.3 3.1 34.5.2.8.7 3.1 1 5 1.5 8.6 10.3 40.5 16 57.5 5.2 15.6 8.9 24.5 18.9 45 11.2 22.9 20.2 38.2 30.1 51.3 7.9 10.5 24.4 27.2 34 34.3 13.8 10.3 29.7 15.8 43.8 15 2.8-.2 2-3.5-1.9-7.2-5.3-5-10.3-12.1-16.6-23.4-5.3-9.3-27.6-54.3-36.5-73.5-3.5-7.5-5.1-11.1-10.8-24.5-4.5-10.5-13.8-44.9-16.9-62.5-.3-1.4-1.4-7-2.5-12.5-1.7-8.9-3.4-17.7-4.6-25-1.9-10.8-3.2-18.3-3.9-23.3-.3-1.5-.8-4.7-1.2-7.2-2.4-15.1-2.9-22.2-2.9-45.5.1-20.4.9-44.9 2-53.1.2-1.6.6-5.6.9-8.9.9-8.9 5.2-41.3 6.1-46.5.3-1.4.8-4.3 1.1-6.5.9-5.8 2.7-8.2 12.1-16 8.6-7.1 30.9-29.1 36-35.5 1.5-1.9 3.1-3.7 3.4-4 1.8-1.4 8.2-10.7 12.3-17.7 14.4-25 20.6-46.5 18.1-62.8-1.3-8.2-3.6-13.5-7.8-17.6-18.2-18.3-48.5 1.4-70.8 46-9.5 19.2-19.5 45-30.2 78.4l-3.1 9.7-8.6 5.3c-16.2 10.2-28.1 15.8-38.2 18.2-8.9 2-9.7.7-12.2-18.4-2-15.2-2-17.4-.1-21.7 29.4-66.6 34.8-99.1 17.9-107.4-4.9-2.4-9.6-2.1-15.1 1.1-9.6 5.5-21.8 29.4-28.7 56-2.1 8.4-3.1 13.8-5.2 29.9-1.6 12.3-3.5 16.8-14.1 33-6.6 9.9-17.2 25.2-20.9 30-20.8 26.4-38.4 42.8-43.9 40.6-1.9-.7-4.2-5.9-6.6-15-2.2-8.5-5.3-12-10.3-11.9-5.4.2-12 6.2-12.9 11.9-.6 3.9-1.3 4.1-15.9 3.8-20.5-.4-28.2-1-40.6-3.5-8.9-1.8-14.9-9.9-19.3-26.4-1.9-6.8-2.2-10.8-2.3-26-.1-19.6 1-36.5 2.9-47.5.3-1.4.7-4.8 1-7.5.3-2.8.7-5.7.9-6.5.1-.8.6-3.5 1-6 1.5-9.2 2.5-14.1 5.3-25.5 4.5-18.8 5-28.7 1.6-33.3-2.9-4-8.9-6.6-15.3-6.6-7.3 0-12.4 1.9-17.3 6.3-9.8 8.8-14.3 19.9-24.3 60.1-4.4 18.1-9.5 30.3-17.7 42.8-12.3 18.7-30.7 39.3-39.8 44.6-12.8 7.3-18.2.3-17.5-22.8.2-6.6.6-13 .9-14.1.2-1.1.8-4.4 1.2-7.4.9-6.9 3.1-13 8.8-25.1 10.9-23.2 15-41.7 10.3-46.9-1.1-1.2-3.6-2.6-5.8-3.3-3.2-.9-4.4-.8-7.7.7-9.9 4.4-18.2 19.8-29.1 54-4.9 15.1-6.5 17.6-22.7 34-25 25.4-39.1 34.6-55.4 36.2-12.1 1.2-17.3-3.5-22.3-19.8-4.9-16.1-5.2-36.8-1-60.4 2.9-16.7 2.2-15.9 19.8-23.6 16.8-7.5 23.7-11.9 33.2-21.8 13.2-13.5 17.4-32.3 10.3-46.3-3.6-7-8.8-11.2-16.6-13.2-13.2-3.5-25 1.4-37.6 15.4-4.8 5.4-15.8 25.6-20.7 38-3.7 9.5-4.5 10.4-9.8 12.2-7.1 2.4-13.3 3.3-24.4 3.3-8.9 0-9.8-.2-12.3-2.5-2.8-2.6-5.5-7.6-6.3-12-.8-3.9-.7-15.9.1-23 1.7-14.6 1.9-17.1 1.3-20.5-.4-1.9-2-4.9-3.6-6.7-1.7-1.8-3-3.5-3-3.8 0-1-5.8-4-7.7-4-1 .1-3.8 1.5-6.3 3.2zm122.8 26.1c2.1 2.5-.7 10.6-5.1 14.8-4 3.9-13.9 10.9-15.4 10.9-2 0-1-2.8 4.1-11.3 4.4-7.4 11.8-15.7 14-15.7.8 0 1.8.6 2.4 1.3zm570.5 23.1c-1 10.6-7.9 27-16.9 40.6-9.9 15-31.5 39.1-32.2 35.8-.5-2.5 7.3-32.6 8.9-34.3.5-.5.9-1.6.9-2.5 0-1.8 9.5-16.5 14.2-21.9 1.7-2 6.4-7.2 10.4-11.6 9.9-10.9 12.4-13.8 12.5-15 0-.6.6.3 1.3 1.9.7 1.6 1.1 4.7.9 7zM2766.3 1514.2c-7.7 1.1-13.9 4.4-20.3 10.7-6.4 6.4-9.1 11.5-9.8 18.4-1.4 14.1 7.3 23.4 26.3 28.2 20.1 5.1 36.8-2 43.8-18.6 2.1-5.2 1.6-15.4-1.1-20.6-6.4-12.4-23.6-20.3-38.9-18.1zM2253.4 1792.6c-14.9 2.5-30.2 9.8-46.5 21.9-10.3 7.6-25.8 22.7-32.2 31-17.5 23-32.8 56.5-45.2 99.1-6 20.6-15.9 64.3-18 79.4-.3 2.5-1 7-1.5 10s-1.2 7.3-1.4 9.5c-.3 2.2-1 7.1-1.5 11-1.8 12.5-2.2 16.7-3.6 31.5-.3 3-.7 7.3-1 9.5-.2 2.2-.7 8.3-1 13.5-.4 5.2-.8 11.1-1 13-2.3 24.8-2.3 91.9-.1 116.5 1.1 12.3 1.7 18.5 2.2 22.3 1.5 11.3 1.2 14.4-1.8 20-3.7 7.2-19.3 29.6-30.8 44.3-10.2 13.2-19.5 23.1-29 31-3.5 3-7 6-7.8 6.6-4.1 3.9-22.2 14.9-29.9 18.2-14.9 6.5-30.3 11.1-38.8 11.6-11.3.7-25.8-7.5-31-17.5-1.5-2.9-4.2-11.9-5-16.9-.3-1.9-.8-3.7-1-4-.5-.9-1.8-15.1-1.6-18 .2-3.3 3.5-9.2 26.9-47.3 24.1-39.3 33.3-57.1 43.5-83.8 9.4-24.6 11-30.8 11.1-44 .1-10.6-.1-12-2.7-17.5-3.3-7-6.5-10.7-12.7-14.3-4-2.4-5.5-2.7-13.5-2.7s-9.7.4-15.8 3.3c-16.5 7.7-28.5 19.5-36.5 35.6-10.4 21.1-19.9 53.2-25.7 87.1-.2 1.6-.7 3.9-.9 5-.2 1.1-.7 4.5-1.2 7.5-.4 3-.8 5.7-.9 6-.1.5-1 7.3-2 16-1.3 10.7-3.2 33.4-3.4 42.1-.2 4.9-24 32.7-33 38.3-5 3.2-21.3 9.6-24.3 9.6-6.5 0-7.9-7-7.3-36 .2-12.4.6-23.4.8-24.5.3-1.1.8-5.8 1.2-10.5.4-4.7.8-8.7 1-9 .2-.3.6-4.3 1-8.9.4-4.7.8-9.2 1-10 .1-.9.6-4.5.9-8.1.4-3.6.9-7.9 1.1-9.5.2-1.7.6-5.9 1-9.5.4-3.6.8-7.6 1-9 .2-1.4.9-6.1 1.5-10.6.6-4.4 1.2-8.9 1.4-10 .2-1 .6-3.7 1-5.9s2.1-10.5 3.8-18.5c5.6-26.9 6.6-33.5 5.6-38.9-1.7-10.1-6.4-12.6-23.3-12.6-11.3 0-12.3.2-16.7 2.8-13.6 8-27.7 28.3-36.7 53-2.9 7.8-8.6 27.4-9.6 32.7-.3 1.4-.9 5-1.5 8s-1.2 6.4-1.4 7.5c-.9 4.5-2 13.1-3.1 23.5-.4 3.6-.8 7.6-1.1 9-1.9 12.2-2.6 58-1.1 74l.8 8.5-6.7 13c-7.9 15.5-11 21.1-13.5 24.7-1.1 1.4-1.9 2.9-1.9 3.2 0 1.1-12 17.4-21.1 28.8-16.6 20.9-31.2 33.8-38.1 33.8-6.8 0-14.6-21.1-18.4-49.5-.3-2.8-.7-5.7-.9-6.5-.2-.8-.6-5.1-1-9.5s-.9-9.4-1.1-11c-1.2-10.3-1.9-33.7-1.9-65.5v-36.5l4.3-6.9c5.8-9.1 6.9-11.1 17.3-31.1 17.5-33.8 30.7-64.8 45.9-107.5 2.6-7.4 7.4-20 10.5-28 12.5-32 18.6-49.7 25-73.3.9-3 1.3-4.8 4.8-22.2 2-9.4 3.8-18.8 4.1-21 .4-2.2 1.2-7.8 2-12.5 1.6-10.1 2-57 .6-70-2.5-22.1-9.7-43.3-20.5-60-6.9-10.7-15.6-18-26.3-22.1-8-2.9-8.6-3-19.4-3.4-9.8-.4-15.8.8-24.8 4.7-4.9 2.2-13.4 10.7-19.7 19.8-1.7 2.5-6.5 8.8-10.7 14-15.4 19-21.4 35.9-39.1 109-3.2 12.9-5.9 24.6-6.2 26-.2 1.4-.9 4.3-1.4 6.5-.5 2.2-1.2 5.1-1.5 6.5-.2 1.4-1.1 5.6-2 9.5-2.4 11.3-3.8 18.8-4.9 25.5-.3 1.9-.8 4.2-1 5-.2.8-1.1 6.4-2 12.5-.9 6-1.8 12.1-2 13.5-.2 1.4-.6 5-1 8-.3 3-.8 7.1-1 9-.3 1.9-.7 6-1 9-.3 3-.7 7.5-1 10-.6 5.2-1.1 12.3-2.1 27-.3 5.8-.8 12.3-.9 14.5-2.7 38-2.7 120.5 0 153.5.2 2.5.6 8.6 1 13.5l.6 9-5.2 7.5c-9.8 14-39.9 51.1-50.4 62.1-10.4 11-38 34.3-55 46.4-1.5 1.1-3.9 2.9-5.4 4-10.7 8.2-42.8 28.2-51.1 31.9-.8.3-3.1 1.6-5 2.7-1.9 1.2-10.9 5.9-20 10.4-17.2 8.7-25.9 12-42.3 16-21.7 5.4-27.4 5.4-46.2 0-4.9-1.5-10.3-3-12-3.5-9.6-2.6-19.8-7.9-29-14.8-6.5-5-26.5-24.7-36-35.6-3.3-3.8-6.5-7.4-7-8-.6-.6-2.4-2.9-4-5.1-1.7-2.2-3.3-4.2-3.6-4.5-.4-.3-3.2-4.6-6.4-9.5-6.7-10.6-18.6-34.7-24.6-49.5-8.5-21.3-20-58-23.3-74.2-.3-1.3-1-4.8-1.5-7.8-.6-3-1.3-6.6-1.6-8-1.2-6-4.6-26.3-5.1-30.3-.2-2.5-.7-5.5-.9-6.7-.7-3.6-1.9-19-1.9-24 0-4.2 1.1-19.2 1.9-25 .2-1.4.8-6.8 1.4-12 .6-5.2 1.3-10.6 1.5-12 .3-1.4.7-4.8 1-7.5.4-2.8.8-6.1 1.1-7.5.2-1.4.7-4.3 1-6.5.4-2.2.8-5.2 1.1-6.8.2-1.5.6-3.9.8-5.5 1.2-7.6 1.9-11.3 3.2-17.4.7-3.7 1.6-8.1 1.9-9.8 1.7-9.6 10.5-31.2 28-68.5 9.8-20.9 8-19.1 19.5-20 4.1-.3 9.8-.7 12.5-1 2.8-.3 7.5-.7 10.5-1 6.1-.5 33.8-4.1 38.5-5 16.8-3.2 29.5-5.8 32.1-6.6 1.7-.5 4.1-1.2 5.3-1.4 1.3-.2 3.2-.7 4.4-1 1.2-.3 3.8-1 5.7-1.5 41.6-11.1 90.4-32.7 114.6-50.5 18.7-13.9 28.4-27.8 29-41.5.8-20.8-7.3-31.6-34.6-46.1-18-9.6-27.6-12-48.1-12.3-23.6-.4-31.5.8-51.9 7.9-28.9 10-59.3 24.3-77 36.1-24.8 16.5-63.2 50.7-77.5 68.9-9.8 12.5-8.7 11.9-19.1 9.9-4.9-.9-10-1.8-11.4-2.1-1.4-.2-6.8-1.3-12-2.5-5.2-1.1-10.5-2.2-11.8-2.4-3.8-.7-11.4-3.5-14.1-5.2-1.5-.9-5.5-3.9-9.1-6.8-8.2-6.5-10-7.4-12.6-6.4-3.8 1.5-5.3 4.6-4.3 9.1 1.6 7 7.6 20.8 11.3 25.8 8.4 11.4 25.5 22.5 44.8 29.1l9.6 3.4-2.3 5c-1.2 2.8-3.7 8.2-5.5 12.1-1.7 3.8-4.1 9-5.2 11.5-4.5 10-15.3 40.8-17.3 49.6-1.1 4.8-7.9 30.3-11.5 42.9-3.6 12.7-9 37-10.5 47-.3 2.2-.7 5.3-1 7-1 6.5-2.1 15.8-3.1 26-2.2 23.9-2.2 64.2.1 84.5.2 1.9.6 6.2 1 9.5.3 3.3.8 7.3 1 9 .2 1.6.7 5.2 1 8 .4 2.7 1.8 10.6 3.2 17.5 1.4 6.9 2.7 13.5 2.9 14.6.9 4.8 5.7 20.5 8.9 28.9 7.4 20 16.7 36.8 30.9 56 4.4 6 8.5 11.5 9.1 12.2.5.6 2.8 3.3 5 5.9 14.5 17.6 33.3 36.1 48.5 48.1 23.4 18.4 62.1 35.4 88.5 38.9 2.8.3 5.9.8 7 1 5.5 1.2 37.6 1.5 44 .5 3.9-.6 8.6-1.4 10.5-1.7 12.7-2 42.6-10.4 51.5-14.4 2.2-1 6.7-3 9.9-4.4 9.7-4.3 23.1-12.2 41.1-24.4 9.4-6.3 18.2-12.4 19.6-13.6 1.4-1.1 4.3-3.5 6.5-5.1 12.2-9.4 46-42.2 65.4-63.5 5.2-5.7 10.4-11.3 11.6-12.5 1.1-1.2 5.6-6.4 9.9-11.6 4.4-5.2 8.4-9.9 9-10.5.5-.6 3.9-4.8 7.5-9.2 6.2-7.7 8.9-9.8 9.1-7 0 .7.2 2.2.5 3.3.2 1.1.6 3.8.9 6 .3 2.2.7 5.1 1 6.5.3 1.4.8 3.8 1.1 5.5 1.4 8.2 6.8 29 9.5 37.3 7.6 23 16.7 36.1 30.4 43.7 15.6 8.7 32.8 12.1 43.2 8.6 5.1-1.7 22.9-13 35.3-22.4 17.4-13.2 37.4-41.2 57-79.7 1.9-3.6 3.5-6.7 3.7-6.9.1-.2 4 3.4 8.7 8.1 13.2 13.3 26.1 18.9 42 18.4 6.7-.3 8.5-.9 20.7-6.7 24.3-11.5 35.1-18.9 49.6-33.8 7.9-8.1 8.3-8.3 9.1-6 .5 1.3 1.9 5.1 3.1 8.4 6.4 17.3 16.5 27.9 35.1 36.9 8.5 4.1 8.5 4.1 21 4.2 7.9.1 14.5-.3 17.8-1.2 9.6-2.5 24-8.8 40.7-17.8 7.8-4.2 9.3-5.1 19.2-11 16.8-10.1 37.2-28.5 48.5-43.6 9.9-13.3 20.8-30.4 22.6-35.3 1.6-4.4 3-6 3.3-3.7.1.5.2 1.3.3 1.7.3 1 1 5.7 3.6 21.8 1.2 7.1 2.6 15 3.1 17.5 1.1 4.6 1.4 5.9 2.6 12 .4 1.9.8 3.7.8 4 .1.3.4 1.8.8 3.5.4 1.6.9 3.9 1.1 5 1.5 7.5 7.4 28.9 11.2 40.5 9.6 29.2 23.2 43.1 42.2 43.1 12.1 0 16.1-2 56.7-27.5 27-16.9 36.3-24.2 51-39.5 26.3-27.6 50.9-68.5 57.9-96.3 7.1-27.9 4.3-51.9-8.1-70.6-11-16.6-27.1-27.4-44.3-30-7.2-1.1-28.6-.2-31 1.3-.3.2-2.1.6-4 .9-5.1.8-16.3 4.1-24.2 7.2-25.7 9.8-47.2 24.9-66 46.4l-5.7 6.4.4-9.9c.3-5.5.7-14.5 1-19.9l.5-10 6.7-12c13.6-24.6 38.2-74.4 53.1-107.6 45.1-100.2 71.8-173.2 82.8-226 4.3-21 4.9-44.7 1.4-56.2-2.4-7.8-7.5-16.5-11.1-18.6-2.2-1.4-9.1-4.1-11.9-4.7-.8-.2-4.3-1-7.7-1.9-6.8-1.8-8.6-1.8-18.9 0zm29.7 30.6c3.5 14.4.7 42.3-7.2 71.6-5.9 21.9-22.3 68.5-32.4 91.7-.7 1.6-3.6 8.8-6.5 16-9.4 23.1-13 31.9-14.4 35-.8 1.6-4.8 10.9-8.9 20.5-4.2 9.6-9.1 21-11.1 25.3-2 4.2-3.6 7.9-3.6 8.1 0 .2-2.2 5.2-5 11-2.7 5.8-5 10.8-5 11 0 .6-11.2 24-19 39.6l-7.2 14.5.6-9.5c.8-10.9 1.5-19 2.1-24 .2-1.9.7-6 1-9 .6-5.9 1.4-12 2-16 .2-1.4.7-4.5 1-7 .5-3.6 3.8-24.7 6-38 .3-1.4 1.6-8.4 3-15.5 1.4-7.2 2.7-14.1 3-15.6.3-1.4 1.8-8.5 3.5-15.8 1.6-7.3 3.2-14.3 3.4-15.5 2.3-12.1 13.5-52.1 19.5-69.8 9-26.5 23-56.4 37.1-79.3 4.1-6.7 10.3-15.8 12.5-18.1.5-.6 2.2-2.4 3.6-4 6.4-7.1 14.1-12.3 18.6-12.4 1.7 0 2.3.9 3.4 5.2zm-576.3 56.7c3.9.3 10.2 18.7 12.7 37.1 2.2 16.4 2.2 74.4 0 81.3-.2.6-.6 3.5-.9 6.2-2.5 22.5-19.7 76.1-42.9 133.5-17.6 43.5-19.7 48.4-20.8 49.5-.7.7-.9-12.9-.4-46 1.3-105.4 1.9-129.4 4-151 1.1-10.5 1.7-16.2 2-18.5.2-1.4.9-6.1 1.5-10.5 4.1-29.3 13.1-58.3 21.9-70.7 7.6-10.7 10.2-12 22.9-10.9zm-323.4 25c2.6.6 6.2 1.9 8 2.7 3.7 1.9 10.6 8.3 10.6 9.9 0 3.3-35.1 31.5-57 45.8-20.7 13.5-49.5 25.7-69 29.4-1.4.2-4.3.8-6.5 1.3-4.8 1.1-27.8 4.6-35 5.4-14.7 1.6-16.5 1.7-16.5.6 0-1 5-8.1 7-10 .3-.3 3.9-4.3 8-9 19.2-21.8 39.2-41.9 46-46.3 4.7-2.9 28.1-14.7 40-20 13.8-6.2 22.3-8.8 33.5-10.3 2.8-.3 5.1-.7 5.3-.9.8-.7 21.3.4 25.6 1.4zm598.6 254.4c0 5.7-.6 11.5-1.6 14.8-2 6.8-13.3 34.8-18.3 45.4-5.8 12.3-27.9 50.4-31.4 54-1.4 1.5-.3-9.1 3.9-35.9 4.9-31.7 10.5-51.4 19.1-67.8 5.9-11.2 16.3-19.7 24.6-19.8h3.7v9.3zm270.9 85.2c1.6 1.4 4.2 5.1 5.7 8.1 2.5 5.1 2.6 6.1 2 13.7-.9 11-1.4 14.4-3.7 26.7-1.2 5.8-2.3 11.6-2.5 13-2.2 12.4-10.3 36.9-16.2 49-5.6 11.7-23.6 35.1-32.5 42.4-4.9 4-16.2 9.6-19.3 9.6-3 0-6.5-3.8-10.1-11.2-4.3-8.6-7.6-23.1-9.8-43.8-.3-3-.8-6.2-1-7-.5-1.6-5.2-42.7-6.1-52.5l-.6-6.1 4.4-4.2c16.3-15.8 65.2-39.9 81.5-40.1 4.1-.1 5.7.4 8.2 2.4z"/><path d="M2800.8 1808.4c-.1.2-2.3.6-4.8.9-9.7 1.2-29.5 10-43.6 19.3-10.5 7-19 14.3-31.9 27.2-18.7 18.6-32.4 34.8-54.9 65.2-7.6 10.2-14.3 19.2-14.9 20-2.2 2.8-38.3 52.4-45.6 62.8-17.5 24.8-29.8 36.6-37.4 35.8-3.3-.4-7.2-2.9-9.2-6-1.6-2.5-4.8-16.5-6-26.5-.4-3-.8-6.1-1-7-.3-1.7-1.6-11.2-2-14.6-1.9-16-5.1-28.6-9.5-37.7-10.4-21.5-33.1-40.9-56-47.9-6-1.9-20.2-1.7-27 .4-28.6 8.5-46.2 49.4-46.4 107.7 0 10.6 1.1 31 1.8 33.1.3.8.7 2.7 1 4.4 1 6.6 8 35 12.7 51.5 6.6 22.9 9.4 29.4 39.4 91.5 15.3 31.8 18.4 38.8 36.7 84l14.9 37-.5 16.5c-.4 16-2.2 27-7.7 47.5-.6 2.2-1.3 4.7-1.4 5.5-.6 2.5-5.3 24.1-7.1 32-3.3 14.9-14 51-17.9 60.4-1.6 3.7 1.9 1.1 5.3-4 3.1-4.6 17.2-32.4 17.2-33.9 0-.8.8-2.6 6.5-15.5 11.5-26.2 15.9-36.9 20-48.5 2.6-7.2 4.8-13.7 5-14.5.1-.8 1.3-4.7 2.5-8.7 1.2-3.9 2.3-8 2.5-9 .2-1 .4-1.8.5-1.8.2 0 .9-4.1 1.9-11.9.9-6.8.7-33.1-.4-39.1-1.7-10.3-11.8-38.5-22.7-63.5-6.3-14.6-11.4-28.3-16.2-43.5-2.1-6.6-6.5-19.2-9.8-28-3.3-8.8-6.1-16.7-6.3-17.5-.2-.8-1.5-4.6-3-8.4-6.6-18-16-55.6-18-72.4-.3-2-.7-4.8-1-6.2-.2-1.4-.7-5.4-1-9-.3-3.6-.8-8.8-1.1-11.5-1.2-10-2.7-30.9-2.7-37.5-.1-11.9 3-27.1 6.3-30.4 1.8-1.8 1.9-1.8 5.7.5 12.1 7.5 14.8 11.1 27.7 37.2 10.4 20.9 24.6 44.8 31.5 52.7 4.9 5.7 12.7 13 14.3 13.6 1 .3 1.8.9 1.8 1.3 0 1.7 14.4 7.3 18.7 7.3 11.6 0 18.3-3.4 34.8-17.6 4.4-3.8 12.5-10 18-13.9 15.2-10.7 28.6-20.7 33-24.6 5.5-5.1 18.7-17.2 20.6-19 .8-.9 5.5-5.2 10.4-9.6 4.8-4.4 9.3-8.5 9.9-9 .6-.6 2.9-2.5 5.1-4.4 6.6-5.6 19.2-17.2 42-38.6 7.2-6.7 15.3-14.3 18-16.9 2.8-2.6 6.2-5.4 7.8-6.3 1.5-1 2.7-2 2.7-2.4 0-.4 1.7-1.8 3.8-3 2-1.3 3.9-2.6 4.2-2.9 1.9-2.5 21.1-9.2 30-10.6 1.9-.3 4.3-.8 5.3-1.1 1.7-.4 1.8.1 1.6 4.9-.8 16.2-16.3 55.3-30.9 78.3-8.5 13.3-31.3 47-36.8 54.5-4.3 5.9-26.6 32.5-29.2 35-.3.3-3.2 3.6-6.5 7.5-3.3 3.8-6.2 7.2-6.5 7.5-.3.3-5.2 6.3-10.8 13.5-5.7 7.1-10.8 13.7-11.5 14.5-2.1 2.6-17.1 23.2-22.3 30.5-8 11.2-23.5 35-31.4 48-7 11.5-8.4 13.9-13.1 22.2-1.2 2.1-2.5 4.2-2.9 4.8-1.5 1.9-14.8 29.1-20.8 42.5-3.2 7.4-6.9 15.5-8 18-20.9 45.3-56.9 144-72.7 199-1.9 6.3-4.4 15.3-5.8 20-2.3 8-4.4 16.3-5.2 20.3-.3 1-.7 2.7-1 3.7-.3 1-.8 2.7-1 3.7-3 12.8-5.2 22.6-8.1 36.8-1.9 9.3-5 23.1-6.9 30.5-3.7 15.1-6.1 27.6-6.9 36.5-.3 3.3-.8 8.7-1.1 12.1-.8 8.8-1.5 55.6-1.6 111.9-.1 54.7.2 61.3 3.7 76.5.9 3.6 1.8 7.6 2 8.9.3 1.3 1.1 3.9 1.9 5.7 1.1 2.8 1.9 3.4 4.3 3.4 5.7 0 6-1.7 6.7-31.5.3-12.1.7-23.1.9-24.5.2-1.4.7-5.2 1-8.5.4-3.3.8-7.1 1-8.5.4-2.5 1.2-8.1 2.1-15 .2-1.9 1.6-11.4 2.9-21 1.4-9.6 2.8-19.5 3.1-22 .6-4 3.8-24.1 5.2-32.5.2-1.7 1.4-7.3 2.5-12.5s2.1-10.4 2.3-11.5c.1-1.1 1-4.9 1.8-8.5.9-3.6 1.8-7.6 2.1-9 .2-1.4 1.2-5.7 2.1-9.5.9-3.9 1.8-7.7 2-8.5.2-.8 1.5-6.7 3-13s2.8-12.2 3-13c1-4.5 2.9-12.7 5.2-22 1.4-5.8 2.6-11.2 2.8-12l2-8c.9-3.6 1.8-7.3 2-8.2 1.3-6.3 10.5-37.5 15.8-53.4 11.2-33.3 11.2-33.2 49.4-110.4 26.7-53.9 41.8-83.3 47.8-93 1.2-1.9 3.9-6.7 6-10.5 2.1-3.9 8-14 13-22.5 5.1-8.5 16.5-27.9 25.5-43 15.8-26.7 57.3-95.9 64.1-107 1.9-3 3.7-5.7 4.2-5.8.4-.2.7-.8.7-1.3 0-1.6 24.4-39 50.1-76.9 19.2-28.3 30.5-48.1 45.6-80.5 11.4-24.5 13.9-33.8 14.1-53.7.2-23.8-6.2-41.5-20.3-55.2-9.4-9.2-22.4-16.1-34-18.1-4.4-.7-20.1-1.5-20.7-1.1zM665.4 1890.2c-7.1 1.8-11.9 10.7-10.7 19.6 1.2 8.7 8.7 18.9 17 23.1 10.8 5.4 63.1 20.7 80.8 23.6 11 1.8 52.6 2.6 66 1.2 16.2-1.6 37.1-6.3 50.6-11.3 18.2-6.8 23.2-21.6 9.7-28.5-5-2.5-12.2-2.8-36.8-1.4-26.6 1.5-62.4 1-75-1.1-5.6-.9-23.8-5-32.1-7.2-7.1-1.9-18.7-5.8-43.5-14.6-10.4-3.7-20.1-5-26-3.4zM867.5 2001.1c-9.2 2.6-32.8 14.2-48.5 23.8-.8.5-6.7 4-13 7.8-13 7.6-46.6 29.9-64.2 42.5-23.4 16.7-73.4 53.4-80.7 59.2-15.9 12.5-28.1 27-31.7 37.7-1.3 3.7-1.3 4.4.1 6.6 1.4 2.1 2.2 2.4 5.6 1.9 2.2-.3 4.4-.8 4.8-1 .4-.3 1.8-.7 3.2-.9 11.5-2.1 28.8-10.2 50.9-23.6 15.2-9.3 27.4-16.6 30.8-18.6 7.6-4.5 23-14 40.7-25.3 11.6-7.4 22.6-14.4 24.5-15.6 1.9-1.1 4-2.4 4.5-2.9.6-.4 12-8 25.5-16.8 29.9-19.7 38.4-25.3 39-25.9.3-.3 5.9-4.1 12.5-8.5 24.1-16.1 30.4-22.3 29.1-28.9-2.4-11.7-15.7-16.4-33.1-11.5zM926 2092.7c-9.8 3.4-30.4 18.9-46.4 34.9-26.7 26.8-45.2 54.5-64.6 96.9-5.7 12.5-17.3 48-19.6 59.9-.2 1.2-.6 3.2-.9 4.6-1.4 6.1-3.4 16.9-4 21-.3 2.5-1 7-1.5 10-1.5 9.1-2 13.9-2.7 25.5-1.3 21.4-.5 78.8 1.3 93.5.8 6.7 5.1 18.7 8.9 25 6.3 10.4 13.6 16 20.6 16 3.9 0 6.3-2.8 12-14.5s9.3-25.2 11.4-43c.3-2.8.8-6.1 1-7.5.2-1.4.7-4.8 1-7.5.8-8.3 1.4-12.5 2.9-24 2.4-17.9 2.8-20.9 4.2-33.5.3-3 .7-6.9.9-8.5.8-5.8 1.5-12.1 2-18 .4-3.3.8-7.1 1-8.5.2-1.4.6-5 1-8 .5-4.9 2.8-18.7 3.9-24.6.2-1.2.7-3.8 1-5.9 3-18.7 14.2-51.2 26.4-76.5 10.4-21.6 18.7-34.8 39.1-61.8 19.3-25.6 21.7-29 23.2-33.5 3.4-10.2-8.6-16.8-22.1-12z"/></svg>