<svg version="1.0" xmlns="http://www.w3.org/2000/svg" width="1624" height="1706.667" viewBox="0 0 1218 1280"><path d="M340.5 93.1c-24 2.6-56.3 11.4-78.2 21.3-30.4 13.7-54.1 30.2-78.8 55C132.2 220.8 105 286.9 105 360c0 42.9 8.5 80.4 27 119.7 45.8 97.2 167.4 223.3 339.5 352.4 60.2 45.1 131 92.9 137.8 92.9 7 0 93.8-59.4 153.2-104.8 165-126.2 276.9-243.8 322.9-339.4 14.9-30.9 22.2-56.2 26.2-90.4 2-17.2 1.4-55.5-1-70.7-4.7-29-12.7-54.2-25-79.2-38.9-79-111.8-132.8-197.6-146-14.9-2.3-43.9-3-59.5-1.6-58.8 5.5-113 28.7-166 70.9-6.6 5.3-21.4 18.9-32.9 30.3l-20.8 20.7-6.3-6.6c-3.4-3.7-7.4-8.1-8.8-9.7-4.1-5-29.4-27.8-41-36.9-46.8-37.1-95.9-59.2-148.9-67.2-12.5-1.9-50.7-2.7-63.3-1.3zM214 1065v89h790V976H214v89zM59 1028.3c0 .1 8.1 20.2 17.9 44.6l18 44.5-16.6 41c-9.1 22.5-17.2 42.4-17.9 44.3L59 1206h138v-178h-69c-37.9 0-69 .1-69 .3zM1021 1117v89h138l-1.7-4.3c-.9-2.3-9-22.2-17.9-44.3l-16.1-40.1 17.3-42.9c9.6-23.6 17.7-43.7 18-44.7.5-1.6-3.2-1.7-68.5-1.7H1021v89z"/></svg>