<svg width="50" height="50" fill="none" xmlns="http://www.w3.org/2000/svg"><path d="M25 0C11.193 0 0 11.193 0 25s11.193 25 25 25 25-11.193 25-25S38.807 0 25 0zm13.436 34.487c-1.067.667-5.403.866-6.452.104-.576-.419-1.102-.942-1.602-1.44-.35-.348-.747-.517-1.048-.895-.245-.31-.413-.675-.672-.98-.436-.512-1.107-.948-1.637-.322-.8.942.125 2.791-.94 3.495-.358.236-.719.304-1.166.27l-.99.045c-.58.012-1.501.017-2.162-.102-.738-.133-1.347-.536-2.014-.832-1.267-.561-2.473-1.327-3.39-2.387-2.5-2.886-5.855-6.856-7.159-10.486-.268-.745-.976-2.222-.305-2.862.914-.663 5.395-.85 6.095.176.283.417.463 1.027.664 1.5.25.589.385 1.144.776 1.665.346.463.601.928.869 1.435.3.57.584 1.115.95 1.639.248.356.904 1.065 1.318 1.118 1.012.13.949-2.33.874-2.93a11.592 11.592 0 01-.072-1.778c.016-.5.061-1.205-.235-1.614-.483-.666-1.56-.168-1.643-1.063.177-.254.14-.48 1.327-.87.935-.307 1.538-.298 2.155-.248 1.256.1 2.589-.24 3.802.168 1.159.39.98 2.037.94 3.024-.052 1.347.004 2.662 0 4.03-.001.622-.026 1.228.733 1.177.712-.047.785-.646 1.124-1.14.472-.69.906-1.388 1.387-2.074.648-.928.845-1.97 1.455-2.92.218-.34.406-1.064.742-1.333.255-.204.739-.097 1.047-.097h.733c.56 0 1.132-.005 1.708.015.83.03 1.76-.161 2.582-.045 3.55.501-4.462 8.09-4.045 9.445.288.936 2.116 1.982 2.776 2.748.875 1.021 3.571 3.05 1.475 4.364z" fill="#000"/></svg>