<svg width="409" height="473" viewBox="0 0 409 473" fill="none" xmlns="http://www.w3.org/2000/svg">
<path d="M-1 10H408V419H-1V10Z" fill="#FFE49E"/>
<path d="M408 119C408 174.5 413.57 181 378.5 181C343.43 181 315 153.242 315 119C315 84.7583 343.43 57 378.5 57C413.57 57 408 63.5 408 119Z" fill="#FFED00"/>
<path d="M214.278 368C211.166 426.5 212.702 419 143.666 419C-63.8337 419 -35.7224 437.036 -35.7224 368C-35.7224 298.964 20.242 243 89.2776 243C158.313 243 217.944 299.062 214.278 368Z" fill="#FFED00"/>
<circle cx="82" cy="231" r="31" fill="#43EFFA"/>
<circle cx="300" cy="81" r="24" fill="#43EFFA"/>
</svg>
