<svg width="291" height="303" viewBox="0 0 291 303" fill="none" xmlns="http://www.w3.org/2000/svg">
<path d="M230.92 0.224434C230.497 0.521248 230.4 1.62936 230.676 3.21237C230.823 4.00387 231.018 5.32964 231.116 6.14094C231.229 6.95223 231.587 9.22781 231.929 11.1868C233.149 18.2114 233.311 19.8933 233.295 25.6318C233.295 32.6366 233.019 35.1892 231.506 42.6491C230.741 46.4286 230.676 47.0816 230.985 47.4575C231.408 47.972 232.075 47.7148 232.921 46.765C234.499 44.9643 236.792 38.2761 237.687 32.8542C238.321 29.0352 238.5 26.918 238.484 23.1583C238.484 19.2997 238.256 17.1627 237.394 12.6709C236.516 8.08012 235.849 6.29924 233.442 2.10426C232.287 0.0859184 231.701 -0.32962 230.92 0.224434Z" fill="black"/>
<path d="M31.5636 20.2496C31.2708 20.6849 30.6202 22.5647 30.246 24.0488C29.5954 26.7399 29.3514 29.0353 29.3677 32.3596C29.3677 36.0005 29.6767 38.5927 30.4087 41.2641C30.9943 43.4407 32.5233 47.2993 33.5318 49.1791L34.28 50.5445L33.7432 51.4547C32.4582 53.572 29.1237 60.0227 28.2616 62.0411C26.2609 66.6912 24.6505 71.8953 23.5607 77.2775C20.5027 92.3755 20.2912 109.472 23.0402 119.128C24.0649 122.73 26.391 128.686 27.7573 131.199C29.4002 134.207 32.5721 137.847 35.7928 140.38C38.9972 142.913 41.3883 143.645 49.505 144.575C52.2377 144.892 52.5631 144.892 54.4174 144.575C56.8573 144.18 58.5652 143.586 61.0539 142.28C64.9578 140.242 67.8857 137.689 71.3829 133.237C74.3758 129.438 76.0024 126.806 78.0682 122.453C78.4586 121.602 78.8327 120.909 78.8815 120.909C79.1418 120.909 80.8497 130.111 81.7118 136.185C82.2161 139.668 82.8993 142.122 83.5987 142.913C83.8589 143.23 84.1355 143.467 84.2005 143.467C84.5584 143.467 85.209 142.24 85.5018 140.994C86.7543 135.829 86.3314 127.875 84.3469 119.643L83.6312 116.675L84.1029 115.844C85.1765 113.904 87.3236 112.876 88.6249 113.687C89.2593 114.083 89.9099 115.151 90.1864 116.299C90.4792 117.446 90.9022 120.672 91.4715 125.856C92.1546 132.089 92.8215 134.583 94.2367 136.106C95.5705 137.531 97.1158 137.61 99.2792 136.304C101.085 135.216 106.192 128.547 108.551 124.234L109.153 123.106L110.161 124.115C110.698 124.669 111.528 125.342 111.983 125.579C113.935 126.628 117.4 127.004 118.945 126.351C121.271 125.381 123.207 122.888 125.516 117.882C127.013 114.676 128.786 110.481 129.469 108.601C129.778 107.751 130.055 107.058 130.103 107.058C130.152 107.058 130.575 108.423 131.047 110.105C132.006 113.43 132.316 114.181 132.95 114.696C133.308 114.993 133.47 115.013 133.91 114.815C134.202 114.676 134.56 114.577 134.707 114.577C134.853 114.577 135.097 114.36 135.243 114.083C135.813 113.014 135.455 106.405 134.398 98.8065C133.991 95.8384 133.991 95.7988 134.251 93.4638C134.577 90.5748 135.162 87.8046 135.796 86.1622C136.268 84.9552 137.065 83.9064 137.488 83.9064C137.927 83.9064 138.545 84.7375 138.789 85.6477C139.245 87.3495 141.62 102.348 141.896 105.178C142.303 109.571 142.547 110.442 143.393 110.837C144.043 111.134 144.694 110.738 144.905 109.907C145.003 109.551 145.052 109.076 145.003 108.898C144.759 107.909 144.548 104.644 144.564 101.913C144.58 95.2843 145.849 87.3297 147.671 82.3828C147.996 81.5121 148.321 80.9976 148.826 80.5623C149.2 80.2259 149.59 79.9489 149.688 79.9489C149.802 79.9489 150.013 80.2259 150.176 80.5623C150.566 81.3736 150.436 83.293 149.785 86.3799C148.191 93.8992 147.817 97.0058 147.41 106.148C147.215 110.639 147.166 113.964 147.231 118.614C147.41 130.407 148.061 134.8 150.208 138.342C151.949 141.251 155.007 143.151 157.138 142.676C159.236 142.181 160.179 140.915 163.611 133.969C166.1 128.963 166.23 128.528 168.882 118.337C169.923 114.28 170.28 112.321 170.28 110.62C170.28 109.037 170.167 109.017 169.727 110.442C169.581 110.956 168.686 112.935 167.759 114.854C166.816 116.774 165.124 120.454 163.986 123.046C160.423 131.179 159.008 133.85 157.642 134.939C157.219 135.275 156.828 135.552 156.763 135.552C156.536 135.552 156.145 134.681 155.787 133.455C154.811 130.111 154.486 125.084 154.811 118.337C155.088 112.618 155.365 109.492 156.308 101.913C157.788 89.9614 157.918 88.2201 157.593 84.4011C157.154 79.098 156.113 76.308 154.112 75.0415C153.429 74.6062 153.055 74.5271 151.981 74.5073C150.81 74.5073 150.55 74.5864 149.541 75.1801C147.963 76.1299 146.825 77.5942 145.768 80.0478C144.792 82.363 143.669 86.2018 143.035 89.5063C142.791 90.7727 142.563 91.8017 142.547 91.7819C142.514 91.7423 142.27 90.4363 141.994 88.8929C141.701 87.3297 141.311 85.5686 141.132 84.9749C140.253 82.1849 138.204 80.8789 136.366 81.9079C134.983 82.6796 133.893 84.7177 133.129 87.9035C132.917 88.794 132.69 89.4074 132.641 89.2491C132.397 88.418 131.893 85.7269 131.893 85.2124C131.893 82.7983 130.38 81.0174 128.965 81.7298C128.688 81.8683 128.265 82.2838 127.989 82.64C126.476 84.7573 126.59 89.348 128.412 98.2524L129.176 102.012L128.119 104.09C127.533 105.237 126.265 107.849 125.305 109.927C121.905 117.189 119.661 120.889 118.132 121.8C116.781 122.591 114.878 122.116 113.691 120.692C113.089 119.959 112.373 118.297 112.373 117.625C112.373 117.387 112.747 116.417 113.219 115.448C114.439 112.876 115.773 109.413 117.107 105.376C119.4 98.3514 119.254 99.0439 119.335 95.502C119.4 92.3359 119.4 92.3359 118.863 90.3572C118.554 89.2689 118.099 87.9431 117.822 87.389C117.4 86.5382 117.204 86.3403 116.359 85.9445C115.822 85.6873 115.025 85.3905 114.586 85.2718C113.008 84.9156 110.763 86.0435 109.38 87.8837C108.681 88.8335 106.843 92.8108 106.127 94.9677C105.558 96.6892 104.793 100.429 104.566 102.744C104.257 105.772 104.419 110.679 104.94 112.994C105.411 115.171 106.257 117.803 107.006 119.326L107.51 120.375L106.615 121.978C105.054 124.788 103.964 126.489 102.175 128.903C99.5232 132.465 98.3357 133.573 97.1808 133.573C96.7254 133.573 96.5139 133.435 96.1073 132.821C95.4404 131.852 95.0988 130.388 94.318 125.065C92.9354 115.586 92.8053 114.973 91.8781 113.41C90.6419 111.352 88.202 110.303 86.4615 111.114C86.2175 111.233 86.2501 111.035 86.6567 109.67C88.4948 103.635 90.463 99.1825 92.3986 96.7288C93.4071 95.4624 94.6921 94.3939 95.2289 94.3939C95.538 94.3939 95.6193 94.5522 95.782 95.5217C96.1886 97.9358 96.579 99.0835 97.1646 99.7167C98.0755 100.686 99.1165 100.449 99.6208 99.1825C100.158 97.7775 99.6045 93.9981 98.5635 91.9995C97.62 90.1791 95.7332 89.7438 93.7975 90.8914C91.813 92.0787 89.3406 95.2843 87.6652 98.8461C86.4615 101.399 85.0789 105.317 84.0541 109.076C83.5174 111.075 83.0131 112.777 82.9318 112.876C82.7041 113.153 82.5414 111.194 82.7203 110.422C82.8179 110.046 83.2408 108.305 83.6475 106.563C84.7861 101.854 85.9735 96.0956 86.2013 94.196C86.4615 91.96 86.4615 84.5792 86.2013 82.917C85.8759 80.8393 85.0464 77.5744 84.5584 76.3871C84.2981 75.7737 83.7939 74.9426 83.436 74.5469C82.395 73.3992 81.7769 73.1419 79.9226 73.1419C78.4586 73.1221 78.1984 73.1815 77.3851 73.6564C76.3278 74.2896 74.5385 76.4465 74.0017 77.7327C73.8065 78.2076 73.4975 79.2761 73.3185 80.1072C72.3426 84.6781 73.5463 95.6405 76.7019 111.035L77.6128 115.507L76.3603 118.218C74.9451 121.325 73.53 123.957 72.2287 125.955C71.1064 127.677 66.0151 133.969 65.1855 134.662C63.3963 136.185 58.5002 137.135 54.6939 136.739C51.1967 136.363 48.6755 135.315 45.2596 132.821C39.1436 128.33 37.5658 126.846 36.6874 124.748C34.2312 118.832 32.0516 110.541 31.3033 104.288C30.3599 96.333 30.8479 85.3707 32.507 77.3765C33.4342 72.9045 34.2638 70.3915 36.1343 66.2954C36.8501 64.7124 37.7935 62.4566 38.2164 61.2891C38.9158 59.3302 40.0545 56.7973 40.2497 56.7973C40.2822 56.7973 40.7376 57.0546 41.2582 57.3712C43.4866 58.7365 46.2193 59.2708 49.44 58.9542C56.0928 58.321 60.6473 55.7684 65.3807 50.0696C67.414 47.5961 68.2435 46.2308 69.0568 43.9354C70.8136 38.9291 70.1141 34.378 67.2838 32.6367C66.8935 32.3992 66.3079 31.9045 65.9826 31.5483C64.0632 29.4508 61.2491 28.9561 58.2074 30.183C57.4429 30.4996 55.3934 31.6275 53.6529 32.6762C51.9124 33.7448 49.7165 35.0507 48.7731 35.585C45.8452 37.2274 44.3487 38.5136 41.0467 42.1743L37.9724 45.5778L37.4194 44.806C36.541 43.599 34.8331 40.334 34.1987 38.7114C33.8896 37.8804 33.4504 36.3567 33.2065 35.2882C32.8161 33.5469 32.7673 33.0126 32.7673 29.8862C32.751 27.9866 32.8486 25.2361 32.9787 23.7718C33.1902 21.4566 33.1902 21.0609 32.9787 20.6058C32.7022 20.0121 31.8726 19.7945 31.5636 20.2496ZM61.8998 35.8422C62.1438 35.9412 62.5504 36.2776 62.8107 36.5744C63.3637 37.2274 63.38 38.0782 62.8595 39.6415C62.2902 41.3234 61.7371 42.2337 59.9966 44.3509C58.614 46.0329 58.2562 46.3495 56.5808 47.3587C54.4337 48.6448 51.4082 49.8915 48.952 50.5049C47.3254 50.9006 47.179 50.9006 45.7313 50.6038C44.8855 50.4455 44.1535 50.2476 44.1047 50.1883C43.9258 49.9706 45.4385 47.8335 47.1302 45.9537C48.0736 44.905 49.6189 43.1439 50.5623 42.0556C51.5058 40.9475 52.5956 39.78 53.0022 39.4436C54.9867 37.8012 59.3785 35.6444 60.7612 35.6246C61.1353 35.6246 61.6395 35.7235 61.8998 35.8422ZM81.2564 78.5637C82.151 79.0387 82.5089 79.7906 82.948 82.0266C83.4035 84.2626 83.5499 89.0116 83.2571 92.3557C83.0944 94.3741 81.4841 102.942 81.2238 103.278C81.0937 103.437 81.0449 103.278 80.5081 100.508C80.2154 99.0242 79.5972 96.2737 79.1093 94.4136C78.1658 90.7727 77.5965 87.765 77.4501 85.6675C77.32 83.7877 77.9218 81.4527 79.1743 79.0189C79.6623 78.0295 80.134 77.9305 81.2564 78.5637ZM115.952 92.4745C115.936 95.8779 115.122 101.636 114.146 105.158C113.414 107.77 111.69 112.124 111.544 111.668C111.495 111.471 111.397 109.888 111.332 108.146C111.17 103.358 111.658 97.6588 112.487 94.5522C113.138 92.1381 114.439 90.6342 115.48 91.0695C115.936 91.2674 115.952 91.3268 115.952 92.4745Z" fill="black"/>
<path d="M253.677 35.862C251.009 39.1072 249.887 40.7495 245.95 47.1014C244.177 49.9706 243.868 51.4546 244.958 51.9295C246.015 52.3847 247.154 51.237 249.382 47.4971C252.636 42.0555 254.539 38.3948 256.149 34.4966C257.353 31.5681 257.141 31.6868 253.677 35.862Z" fill="black"/>
<path d="M152.014 49.5549C151.786 49.9705 149.509 52.3846 145.312 56.6389C143.864 58.123 143.62 58.2219 140.823 58.5781C139.489 58.7364 139.017 58.7166 137.602 58.3802C135.52 57.8855 134.072 57.8855 132.511 58.3604C129.355 59.3498 128.184 60.9724 126.606 66.4734C126.053 68.4126 126.492 70.0549 127.55 70.0549C127.973 70.0549 128.249 69.8175 129.127 68.6896C129.713 67.9377 130.364 67.2253 130.575 67.0868C130.884 66.8889 131.551 66.8691 133.422 67.0076C137.992 67.3242 139.066 67.1659 141.408 65.8006C143.263 64.7123 145.296 62.8324 147.638 60.0622C150.468 56.7379 151.9 54.1655 152.485 51.2963C152.86 49.4758 152.583 48.4864 152.014 49.5549Z" fill="black"/>
<path d="M261.37 53.3345C256.946 54.1062 253.937 55.2934 252.505 56.8171C251.757 57.6284 251.448 58.3605 251.448 59.3697C251.448 60.0029 251.562 60.3195 252.001 60.8933C252.522 61.6057 252.603 61.6453 253.758 61.7046C254.457 61.7442 255.759 61.6255 256.979 61.3682C263.127 60.1612 267.047 60.2206 272.919 61.6651C275.554 62.2983 277.653 63.1689 280.564 64.8113C281.866 65.5434 284.241 66.8494 285.851 67.7201C287.461 68.5709 289.234 69.5999 289.787 69.9759C290.357 70.3518 290.877 70.6091 290.958 70.5497C291.137 70.431 290.714 68.8084 290.161 67.4826C289.137 65.0092 286.989 62.2191 284.696 60.3789C283.021 59.0333 279.198 56.6984 276.823 55.5507C273.31 53.8489 270.593 53.2355 266.088 53.1366C263.908 53.0772 262.428 53.1366 261.37 53.3345Z" fill="black"/>
<path d="M162.31 70.3914C161.253 71.3214 160.7 72.4691 160.098 74.9624C159.382 78.0294 159.756 80.3248 161.334 82.4025C163.01 84.5989 164.181 85.0343 167.483 84.5989C168.703 84.4406 169.727 84.3417 169.744 84.3813C169.776 84.4209 169.679 85.0936 169.532 85.9049C169.158 87.9035 169.158 92.7514 169.516 94.7896C170.281 99.0439 172.46 101.715 175.128 101.715C176.104 101.715 177.617 101.221 178.739 100.528C179.926 99.7958 181.976 97.8962 183.114 96.4913C183.602 95.8977 184.058 95.4426 184.139 95.5019C184.204 95.5613 184.269 95.8581 184.269 96.1747C184.269 97.1443 184.887 99.222 185.424 99.9937C186.644 101.794 189.068 102.368 190.938 101.3C192.11 100.627 193.313 99.2814 194.696 97.1047C195.672 95.5811 195.818 95.4228 195.883 95.8185C196.404 98.9054 196.843 100.429 197.721 102.151C198.486 103.694 199.836 105.336 200.861 105.97C203.61 107.671 207.514 107.355 210.718 105.178C211.661 104.525 211.775 104.505 211.873 104.822C212.377 106.563 213.06 107.632 214.101 108.285C214.589 108.601 215.061 108.72 215.874 108.7C216.818 108.7 217.159 108.582 218.233 107.948C219.941 106.919 222.072 104.307 224.202 100.667L225.797 97.9358L226.073 98.6877C227.244 101.874 229.57 102.428 233.539 100.449L234.564 99.9344L234.483 100.488C232.173 113.647 232.173 113.588 232.417 120.612C232.645 127.063 232.742 127.973 233.637 131.99C234.954 137.867 235.605 140.044 237.28 144.16C239.395 149.384 240.778 151.916 242.974 154.568C245.397 157.516 247.268 158.783 249.578 159.04C250.944 159.198 251.025 158.921 250.017 157.754C249.024 156.586 248.504 155.498 245.544 148.216C242.876 141.627 242.079 139.312 241.363 136.106C240.403 131.674 239.037 122.829 238.582 118.139C238.354 115.606 238.468 108.839 238.842 104.683C239.086 102.032 239.623 97.362 239.818 96.1549C239.883 95.8185 240.338 95.2249 241.184 94.4334C242.713 92.9493 245.365 89.6646 246.536 87.765C247.691 85.8851 249.106 82.4025 249.512 80.3644C250.228 76.9213 249.659 74.2896 248.032 73.2606C246.682 72.4296 245.104 73.1023 243.25 75.2988C241.005 77.9701 239.281 82.1453 236.971 90.5352L236.06 93.8991L234.596 95.027C233.116 96.1747 231.181 97.2235 230.107 97.4609C229.554 97.5796 229.489 97.5598 229.245 96.986C229.115 96.6496 228.92 95.403 228.822 94.2355L228.643 92.0787L229.326 90.1395C231.88 82.8576 232.71 78.7022 232.026 76.7037C231.522 75.2394 230.237 74.7645 229.147 75.6549C227.423 77.0599 225.504 82.917 225.113 88.0618C224.951 90.2582 224.772 90.7133 222.917 94.097C219.811 99.7958 216.362 104.268 215.435 103.833C215.175 103.714 214.752 102.388 214.606 101.26C214.394 99.7167 213.288 99.2418 212.393 100.31C212.133 100.627 211.873 101.161 211.824 101.498L211.726 102.111H209.856C207.465 102.111 204.992 101.775 204.277 101.359C203.577 100.944 202.78 99.1231 202.455 97.1641C201.869 93.6617 202.487 85.43 203.805 79.0782C204.228 77.0599 204.244 75.7737 203.886 75.1009C203.333 74.0719 201.902 73.7157 200.731 74.3292C199.039 75.18 198.095 77.515 196.957 83.7877C196.241 87.666 195.2 90.0405 192.467 93.9783C190.581 96.7486 188.986 97.916 188.287 97.0849C187.653 96.3132 187.523 94.0376 187.929 90.7925C188.108 89.249 188.32 88.5169 188.905 87.0724C190.337 83.6096 190.938 80.5821 190.385 79.6916C190.271 79.5135 189.946 79.2563 189.67 79.1376C188.238 78.5439 186.693 81.1361 185.408 86.2809C185.131 87.4286 184.774 88.7148 184.627 89.1501C184.286 90.1593 180.333 95.0072 178.983 96.0758C176.95 97.6984 174.802 98.2128 173.973 97.2828C172.981 96.1549 172.395 93.5232 172.395 90.1197C172.395 88.1607 172.818 84.6583 173.192 83.6096C173.29 83.3325 173.859 82.9368 174.916 82.4421C178.755 80.5821 180.935 77.6733 180.919 74.4083C180.919 71.8161 179.552 70.055 177.519 70.055C175.762 70.055 174.249 71.4402 172.867 74.3292C172.249 75.6351 171.24 78.2867 170.882 79.5729C170.769 79.9686 168.508 80.5425 167.06 80.5425C166.116 80.5425 165.97 80.4831 165.563 79.9488C164.831 78.999 164.652 77.6139 164.913 75.0415C165.238 71.9546 165.222 71.5193 164.701 70.9257C164.457 70.6487 164.262 70.3716 164.262 70.2727C164.262 70.1144 163.546 69.6593 163.302 69.6593C163.237 69.6593 162.782 69.9957 162.31 70.3914ZM177.649 74.5666C177.649 74.9228 177.438 75.5164 177.194 75.9122C176.754 76.6245 175.046 78.0888 174.884 77.9107C174.737 77.7129 175.876 75.3383 176.494 74.5468C177.226 73.597 177.698 73.6168 177.649 74.5666ZM247.056 78.2075C246.829 79.8301 245.853 82.264 244.551 84.4604C243.575 86.1028 241.266 89.1897 241.119 89.0116C240.973 88.8335 242.03 83.9855 242.437 83.0159C243.039 81.6308 243.982 80.1269 245.544 78.1086C246.292 77.1588 246.894 76.2683 246.91 76.1298C246.91 76.0111 246.991 76.1101 247.089 76.3871C247.203 76.7235 247.186 77.2775 247.056 78.2075Z" fill="black"/>
<path d="M260.053 105.97C259.126 106.326 257.89 107.632 257.434 108.7C256.718 110.422 257.141 112.42 258.41 113.41C259.158 113.984 260.931 114.577 261.907 114.577C265.047 114.577 266.982 110.62 265.226 107.79C264.136 106.068 261.875 105.257 260.053 105.97Z" fill="black"/>
<path d="M198.486 147.029C195.834 147.504 193.183 149.344 190.255 152.728C186.482 157.101 183.456 165.788 181.439 178.095C179.487 189.909 178.804 205.6 179.796 215.989C179.991 218.086 180.008 218.759 179.861 219.095C178.804 221.529 175.128 227.584 173.664 229.266C172.054 231.166 169.923 233.125 168.621 233.916C166.767 235.044 164.067 236.113 162.977 236.133C161.106 236.172 159.431 234.708 158.894 232.571C158.601 231.443 158.244 228.692 158.244 227.663C158.244 227.446 159.399 224.992 160.814 222.222C164.864 214.287 165.645 212.427 167.32 206.886C168.133 204.176 168.394 202.593 168.296 200.99C168.101 198.101 166.377 196.221 164.262 196.577C162.473 196.874 160.163 198.793 158.992 200.93C156.845 204.868 154.844 214.663 154.324 223.805L154.145 227.07L153.234 228.514C152.746 229.306 151.884 230.513 151.347 231.186C150.517 232.215 150.111 232.531 148.858 233.164C146.955 234.114 146.678 234.094 146.418 232.907C146.093 231.384 146.174 226.912 146.613 222.36C146.825 220.065 147.15 216.464 147.329 214.406C147.524 212.249 147.898 209.34 148.224 207.579C149.086 202.909 149.183 202.019 148.988 201.089C148.712 199.882 148.256 199.545 146.63 199.387C145.036 199.229 144.466 199.427 143.311 200.594C141.278 202.612 139.521 206.966 138.497 212.546C137.618 217.374 137.081 225.566 137.391 229.444L137.602 231.898L136.284 235.024C135.292 237.379 134.544 238.824 133.226 240.921C130.884 244.641 129.111 246.838 128.168 247.174C127.468 247.431 127.452 247.412 127.078 246.838C125.598 244.621 124.736 236.568 124.736 225.012V221.173L125.777 218.977C128.33 213.555 130.852 206.847 132.462 201.247C132.966 199.446 133.617 197.309 133.877 196.498C136.642 188.068 137.537 184.388 138.432 178.095C138.887 174.83 138.936 173.999 138.936 170.378C138.952 164.739 138.529 162.048 137.098 158.387C135.927 155.419 134.642 153.935 132.576 153.163C130.933 152.55 128.997 152.708 127.566 153.618C126.98 153.974 125.988 155.26 125.224 156.626C124.931 157.16 124.361 158.051 123.971 158.585C122.296 160.88 121.434 163.65 119.693 172.298C117.822 181.618 117.074 186.149 116.521 191.551C115.562 201.188 115.22 214.287 115.708 222.974L115.984 227.98L115.366 229.068C114.244 231.047 110.047 237.34 108.957 238.646C107.022 241 102.451 245.413 99.6533 247.609C97.3598 249.43 92.1709 252.853 90.4142 253.704C88.69 254.535 85.5018 255.465 84.2981 255.465C83.4198 255.465 79.7599 254.238 78.6701 253.565C77.076 252.596 75.8235 251.329 73.7089 248.599C70.5859 244.523 69.9515 243.454 68.2273 239.318C66.7959 235.856 65.2181 230.572 64.3072 226.179C63.4776 222.163 62.5992 215.474 62.5992 213.1C62.5992 210.27 63.933 198.793 64.6162 195.805C64.7301 195.251 64.9903 194.321 65.1855 193.728C65.6247 192.422 68.7966 183.992 68.9267 183.794C68.9755 183.735 70.1304 183.577 71.4642 183.458C79.2719 182.765 86.5266 180.49 92.8378 176.789C97.0995 174.296 99.5394 171.981 100.58 169.468C100.987 168.479 101.068 168.083 101.052 166.816C101.052 164.066 100.044 162.562 96.9206 160.544C94.3994 158.921 93.3909 158.624 90.3328 158.624C87.5351 158.644 86.8356 158.822 83.1595 160.484C80.069 161.909 77.1573 163.611 75.303 165.115C71.9034 167.885 66.7471 173.544 65.3645 176.057C65.0554 176.631 64.6975 177.106 64.5837 177.106C64.0144 177.106 58.8743 175.84 58.1261 175.503C57.6055 175.266 56.841 174.672 56.2555 174.019C55.4747 173.168 55.1819 172.97 54.9054 173.069C54.4174 173.228 54.1083 173.762 54.2059 174.237C54.3523 174.969 54.9216 176.849 55.1982 177.482C56.0603 179.52 58.7604 181.835 61.3467 182.726C61.851 182.904 62.2739 183.082 62.2739 183.121C62.2739 183.161 61.8998 184.17 61.4443 185.338C59.9316 189.256 59.0207 192.481 57.9634 197.586C57.7519 198.675 57.3778 200.297 57.1664 201.188C55.6374 207.322 54.8891 216.009 55.2632 223.172C55.6862 231.126 56.7922 237.043 58.7442 241.713C60.2894 245.472 63.1848 250.043 66.3729 253.803C68.7478 256.593 70.3581 258.018 72.9282 259.581C76.4742 261.718 79.1906 262.589 82.8505 262.727C85.2904 262.826 85.5994 262.787 87.8929 262.213C90.951 261.461 92.9192 260.689 95.2127 259.343C97.2297 258.156 100.727 255.386 103.167 253.031C105.688 250.578 111.462 243.434 114.163 239.378C115.464 237.458 116.554 235.875 116.603 235.875C116.668 235.875 116.798 236.706 116.912 237.696C117.025 238.705 117.334 240.565 117.578 241.812C118.457 246.145 119.417 248.737 120.702 250.261C122.361 252.22 125.907 253.486 127.452 252.655C128.314 252.18 131.551 249.509 132.462 248.5C134.089 246.679 136.577 242.287 138.236 238.25C138.611 237.32 138.952 236.528 138.985 236.489C139.033 236.429 139.391 236.845 139.782 237.399C141.213 239.378 142.986 240.446 144.873 240.466C146.028 240.466 146.125 240.426 148.403 239.041C151.07 237.419 152.404 236.291 153.819 234.352C154.372 233.62 154.828 233.125 154.828 233.263C154.828 233.402 155.055 234.233 155.332 235.104C156.031 237.34 157.284 238.923 159.187 240.09C160.537 240.901 160.618 240.921 162.213 240.921C164.213 240.921 164.978 240.644 168.003 238.824C171.988 236.41 174.591 234.134 176.575 231.324C177.877 229.504 180.203 225.289 180.317 224.537C180.479 223.508 180.642 223.825 180.837 225.546C181.455 231.107 183.131 239.457 184.139 242.049C185.619 245.829 187.978 247.194 190.662 245.789C191.313 245.453 194.484 243.098 197.9 240.407C201.414 237.656 205.204 232.076 207.627 226.08C208.782 223.191 209.319 220.678 209.319 217.987C209.319 214.782 208.587 212.348 207.026 210.27C205.155 207.777 203.284 206.847 200.584 207.045C195.834 207.401 190.646 210.547 187.474 214.999L186.498 216.385L186.595 213.436L186.709 210.508L187.929 207.797C191.166 200.554 195.395 189.434 198.73 179.342C203.366 165.233 205.236 156.072 204.423 151.343C204.179 149.898 203.512 148.493 202.861 147.998C202.373 147.622 199.917 146.811 199.478 146.871C199.397 146.871 198.941 146.95 198.486 147.029ZM201.755 151.125C202.048 152.015 202.129 153.974 201.983 155.933C201.755 158.822 201.17 161.929 200.015 166.223C198.079 173.445 191.947 191.135 188.336 199.961L187.197 202.731L187.279 200.95C187.506 196.359 188.515 188.167 189.572 182.152C191.557 170.992 193.004 165.55 195.656 159.337C198.014 153.816 199.868 151.125 201.528 150.808C201.593 150.788 201.69 150.947 201.755 151.125ZM132.169 160.999C133.015 163.255 133.357 166.5 133.357 172.1C133.357 175.859 133.08 178.927 132.478 181.954C131.958 184.546 129.729 192.461 128.477 196.221C127.924 197.843 126.997 200.634 126.411 202.434C125.825 204.235 125.272 205.778 125.207 205.877C125.126 205.976 125.11 203.8 125.142 201.029C125.191 198.259 125.256 192.58 125.305 188.385C125.386 180.153 125.533 177.027 126.053 172.496C126.687 167.034 127.745 163.077 129.144 161.019C129.762 160.108 129.989 159.99 131.014 159.99C131.795 160.01 131.795 160.01 132.169 160.999ZM92.7077 163.947C93.1143 164.125 93.6999 164.561 93.9927 164.937C94.5295 165.609 94.5295 165.629 94.2204 166.045C94.0578 166.282 92.9679 167.41 91.7968 168.538C85.8922 174.296 82.1998 176.374 75.8561 177.482C73.0583 177.977 71.8709 178.095 71.8709 177.878C71.8709 177.383 77.7917 169.567 78.9954 168.459C79.825 167.707 84.2005 165.135 86.0386 164.323C88.1207 163.413 91.0648 163.235 92.7077 163.947ZM165.14 201.742C165.14 203.166 165.059 203.582 164.262 205.996C163.79 207.46 163.091 209.459 162.717 210.448C161.985 212.368 158.911 218.739 158.78 218.581C158.683 218.462 159.317 212.862 159.724 210.409C160.326 206.708 161.285 203.463 162.245 201.92C162.814 200.97 164.083 200.04 164.669 200.099L165.157 200.159L165.14 201.742ZM198.356 214.346C199.169 215.534 199.267 216.107 199.071 218.225C198.649 222.618 197.673 227.208 196.501 230.335C195.997 231.72 194.842 233.659 193.313 235.796C192.565 236.805 192.077 237.26 191.215 237.775C190.353 238.27 190.011 238.388 189.784 238.23C189.426 238.012 188.71 236.548 188.385 235.42C188.092 234.371 187.49 229.405 187.035 224.319L186.693 220.401L187.051 219.927C188.368 218.225 192.37 215.494 195.249 214.327C197.233 213.535 197.786 213.535 198.356 214.346Z" fill="black"/>
<path d="M264.217 149.601C262.509 150.017 260.199 151.402 258.117 153.282C255.905 155.261 252.489 159.693 249.805 164.046C244.925 172.001 242.518 175.998 241.347 178.096C239.655 181.143 237.996 183.339 237.134 183.656C236.581 183.854 236.435 183.834 235.93 183.458C235.198 182.904 235.068 182.271 234.369 175.86C234.011 172.555 233.799 171.546 233.1 169.864C231.685 166.441 228.448 163.374 225.731 162.859C221.437 162.068 218.542 166.223 217.598 174.534C217.322 177.106 217.354 182.014 217.68 184.23C218.054 186.723 219.29 192.501 219.99 194.994C220.315 196.102 221.763 199.981 223.226 203.622C226.154 210.943 226.171 211.002 228.643 218.462L230.367 223.706V226.081C230.367 228.277 230.318 228.752 229.538 232.611C229.066 234.886 228.611 237.36 228.513 238.072C228.334 239.457 226.919 245.532 226.398 247.154C226.219 247.708 226.138 248.144 226.203 248.144C226.594 248.144 228.253 244.384 229.277 241.119C229.603 240.13 230.042 238.883 230.27 238.349C231.441 235.519 233.198 229.464 233.572 226.931C233.881 224.755 233.848 220.817 233.49 219.254C233.002 217.117 231.799 213.179 230.709 210.25C230.14 208.727 229.424 206.412 229.115 205.106C228.789 203.8 228.155 201.524 227.7 200.06C225.975 194.618 224.853 189.81 224.381 185.813C224.024 182.884 223.633 177.502 223.633 175.602C223.633 173.821 224.137 171.427 224.528 171.229C224.788 171.13 226.041 172.159 226.756 173.089C227 173.386 227.537 174.534 227.944 175.622C229.294 179.164 229.993 180.727 231.213 182.963C232.579 185.496 233.686 186.822 235.149 187.653C236.028 188.148 236.321 188.227 237.069 188.128C238.208 187.989 239.281 187.257 240.745 185.615C241.396 184.903 242.632 183.735 243.478 183.042C245.836 181.123 246.763 180.213 249.155 177.443C250.375 176.038 252.034 174.197 252.831 173.386C253.644 172.555 255.645 170.319 257.304 168.4C260.59 164.581 261.696 163.473 262.834 162.76C263.648 162.265 264.949 161.771 266.055 161.573L266.738 161.434V162.226C266.738 163.868 265.225 168.934 263.778 172.139C262.916 174.059 258.996 181.143 257.857 182.884C257.369 183.636 256.133 185.377 255.124 186.763C250.879 192.639 247.024 199.051 243.608 205.976C241.688 209.855 240.94 211.636 238.956 217.077C233.669 231.601 228.871 249.054 227.212 259.819C227.016 261.065 226.61 263.301 226.301 264.746C225.325 269.475 225.243 270.623 225.162 280.991C225.048 296.841 225.065 297.118 225.699 300.482C226.024 302.204 226.171 302.56 226.561 302.56C227.293 302.56 227.374 302.144 227.374 298.543C227.374 296.663 227.488 294.249 227.602 293.161C227.732 292.072 228.09 288.827 228.415 285.938C229.229 278.775 229.456 277.232 231.05 268.822C233.019 258.433 233.767 254.891 234.938 250.617C236.321 245.591 237.004 243.652 240.208 235.974C241.688 232.373 243.331 228.376 243.836 227.07C245.039 223.963 247.723 218.126 251.123 211.24C252.619 208.193 255.14 203.028 256.735 199.763C260.004 193.055 263.03 187.237 266.071 181.855C268.967 176.71 269.829 174.989 271.618 170.537C273.716 165.333 274.09 163.987 274.172 161.078C274.269 158.427 274.025 156.863 273.212 154.806C271.651 150.868 267.909 148.711 264.217 149.601Z" fill="black"/>
<path d="M3.89498 161.988C2.46357 163.453 3.30941 166.757 5.44026 168.024C6.39996 168.578 12.0605 170.655 14.0938 171.19C16.1596 171.724 21.0394 171.922 23.5444 171.566C25.5126 171.289 28.4567 170.438 29.7092 169.785C31.9702 168.597 32.1654 166.124 30.0508 165.431C29.514 165.253 28.782 165.253 26.9765 165.431C24.0486 165.708 19.5429 165.728 17.6073 165.431C15.021 165.055 11.7352 163.947 8.31935 162.345C6.83914 161.632 6.28609 161.474 5.44026 161.474C4.54563 161.474 4.3179 161.553 3.89498 161.988Z" fill="black"/>
<path d="M28.8472 178.155C27.4808 178.709 26.6512 179.223 23.642 181.321C19.4616 184.23 16.1759 186.901 10.5478 191.947C8.88871 193.431 6.62773 195.43 5.52164 196.399C2.91907 198.675 1.16233 200.792 0.495427 202.434C-0.0901514 203.839 -0.106417 203.998 0.186372 204.492C0.39783 204.829 0.462895 204.829 1.94311 204.354C3.9113 203.701 5.19632 203.008 7.57116 201.227C8.62845 200.436 11.0521 198.655 12.9552 197.25C16.5988 194.579 24.1951 188.583 29.6117 184.091C33.2065 181.103 33.548 180.648 33.1251 179.342C32.6371 177.739 30.9943 177.284 28.8472 178.155Z" fill="black"/>
<path d="M35.6789 191.947C34.3939 192.778 32.263 194.836 30.6364 196.834C24.2438 204.65 20.2912 215.593 19.3315 228.178C19.0387 231.858 19.2014 242.326 19.5592 243.87C19.9496 245.571 20.4051 246.699 21.0557 247.689C21.7226 248.678 22.357 249.133 23.0564 249.133C23.4956 249.133 23.6095 248.995 24.2113 247.689C25.2035 245.512 25.5939 243.731 26.0006 239.635C26.1795 237.617 26.4398 235.123 26.5699 234.094C26.7 233.065 26.9928 230.058 27.2205 227.426C27.8874 219.669 28.5218 216.048 30.0183 211.438C31.7913 205.976 33.2715 202.889 36.7199 197.487C38.8996 194.104 39.2411 193.391 39.0785 192.639C38.802 191.254 37.2567 190.938 35.6789 191.947Z" fill="black"/>
</svg>
