<svg width="291" height="303" fill="none" xmlns="http://www.w3.org/2000/svg"><path d="M230.92.224c-.423.297-.52 1.405-.244 2.988.147.792.342 2.118.44 2.929.113.811.471 3.087.813 5.046 1.22 7.024 1.382 8.706 1.366 14.445 0 7.005-.276 9.557-1.789 17.017-.765 3.78-.83 4.433-.521 4.809.423.514 1.09.257 1.936-.693 1.578-1.8 3.871-8.489 4.766-13.91.634-3.82.813-5.937.797-9.697 0-3.858-.228-5.995-1.09-10.487-.878-4.59-1.545-6.372-3.952-10.567-1.155-2.018-1.741-2.434-2.522-1.88zM31.564 20.25c-.293.435-.944 2.315-1.318 3.799-.65 2.69-.895 4.986-.878 8.31 0 3.642.309 6.234 1.04 8.905.586 2.177 2.115 6.035 3.124 7.915l.748 1.365-.537.91c-1.285 2.118-4.62 8.569-5.481 10.587-2.001 4.65-3.611 9.854-4.701 15.237-3.058 15.097-3.27 32.194-.52 41.85 1.024 3.602 3.35 9.558 4.716 12.071 1.643 3.008 4.815 6.648 8.036 9.181 3.204 2.533 5.595 3.265 13.712 4.195 2.733.317 3.058.317 4.912 0 2.44-.395 4.148-.989 6.637-2.295 3.904-2.038 6.832-4.591 10.329-9.043 2.993-3.799 4.62-6.431 6.685-10.784.39-.851.765-1.544.814-1.544.26 0 1.968 9.202 2.83 15.276.504 3.483 1.187 5.937 1.887 6.728.26.317.536.554.602.554.357 0 1.008-1.227 1.3-2.473 1.253-5.165.83-13.119-1.154-21.351l-.716-2.968.472-.831c1.074-1.94 3.22-2.968 4.522-2.157.634.396 1.285 1.464 1.561 2.612.293 1.147.716 4.373 1.285 9.557.684 6.233 1.35 8.727 2.766 10.25 1.334 1.425 2.879 1.504 5.042.198 1.806-1.088 6.913-7.757 9.272-12.07l.602-1.128 1.008 1.009c.537.554 1.367 1.227 1.822 1.464 1.952 1.049 5.417 1.425 6.962.772 2.326-.97 4.262-3.463 6.571-8.469 1.497-3.206 3.27-7.401 3.953-9.281.309-.85.586-1.543.634-1.543.049 0 .472 1.365.944 3.047.959 3.325 1.269 4.076 1.903 4.591.358.297.52.317.96.119.292-.139.65-.238.797-.238.146 0 .39-.217.536-.494.57-1.069.212-7.678-.845-15.276-.407-2.969-.407-3.008-.147-5.343.326-2.89.911-5.66 1.545-7.302.472-1.207 1.269-2.256 1.692-2.256.439 0 1.057.831 1.301 1.742.456 1.702 2.831 16.7 3.107 19.53.407 4.393.651 5.264 1.497 5.659.65.297 1.301-.099 1.512-.93.098-.356.147-.831.098-1.009-.244-.989-.455-4.254-.439-6.985.016-6.629 1.285-14.583 3.107-19.53.325-.87.65-1.385 1.155-1.82.374-.337.764-.614.862-.614.114 0 .325.277.488.613.39.812.26 2.731-.391 5.818-1.594 7.52-1.968 10.626-2.375 19.768a197.591 197.591 0 00-.179 12.466c.179 11.793.83 16.186 2.977 19.728 1.741 2.909 4.799 4.809 6.93 4.334 2.098-.495 3.041-1.761 6.473-8.707 2.489-5.006 2.619-5.441 5.271-15.632 1.041-4.057 1.398-6.016 1.398-7.717 0-1.583-.113-1.603-.553-.178-.146.514-1.041 2.493-1.968 4.412-.943 1.92-2.635 5.6-3.773 8.192-3.563 8.133-4.978 10.804-6.344 11.893-.423.336-.814.613-.879.613-.227 0-.618-.871-.976-2.097-.976-3.344-1.301-8.371-.976-15.118.277-5.719.554-8.845 1.497-16.424 1.48-11.952 1.61-13.693 1.285-17.512-.439-5.303-1.48-8.093-3.481-9.36-.683-.435-1.057-.514-2.131-.534-1.171 0-1.431.08-2.44.673-1.578.95-2.716 2.414-3.773 4.868-.976 2.315-2.099 6.154-2.733 9.458-.244 1.267-.472 2.296-.488 2.276-.033-.04-.277-1.346-.553-2.89-.293-1.562-.683-3.323-.862-3.917-.879-2.79-2.928-4.096-4.766-3.067-1.383.772-2.473 2.81-3.237 5.995-.212.891-.439 1.504-.488 1.346-.244-.831-.748-3.522-.748-4.037 0-2.414-1.513-4.195-2.928-3.482-.277.138-.7.554-.976.91-1.513 2.117-1.399 6.708.423 15.612l.764 3.76-1.057 2.078a204.863 204.863 0 00-2.814 5.837c-3.4 7.262-5.644 10.962-7.173 11.873-1.351.791-3.254.316-4.441-1.108-.602-.733-1.318-2.395-1.318-3.067 0-.238.374-1.208.846-2.177 1.22-2.572 2.554-6.035 3.888-10.072 2.293-7.025 2.147-6.332 2.228-9.874.065-3.166.065-3.166-.472-5.145-.309-1.088-.764-2.414-1.041-2.968-.422-.85-.618-1.049-1.463-1.444a12.633 12.633 0 00-1.773-.673c-1.578-.356-3.823.771-5.206 2.612-.699.95-2.537 4.927-3.253 7.084-.569 1.721-1.334 5.461-1.561 7.776-.309 3.028-.147 7.935.374 10.25.471 2.177 1.317 4.809 2.066 6.332l.504 1.049-.895 1.603c-1.561 2.81-2.651 4.511-4.44 6.925-2.652 3.562-3.84 4.67-4.994 4.67-.456 0-.667-.138-1.074-.752-.667-.969-1.008-2.433-1.789-7.756-1.383-9.479-1.513-10.092-2.44-11.655-1.236-2.058-3.676-3.107-5.416-2.296-.245.119-.212-.079.195-1.444 1.838-6.035 3.806-10.487 5.742-12.941 1.008-1.267 2.293-2.335 2.83-2.335.309 0 .39.158.553 1.128.407 2.414.797 3.561 1.383 4.195.91.969 1.951.732 2.456-.534.537-1.406-.016-5.185-1.057-7.184-.944-1.82-2.83-2.255-4.766-1.108-1.985 1.188-4.457 4.393-6.133 7.955-1.204 2.553-2.586 6.471-3.61 10.23-.538 1.999-1.042 3.701-1.123 3.8-.228.277-.39-1.682-.212-2.454.098-.376.52-2.117.927-3.859 1.14-4.709 2.326-10.467 2.554-12.367.26-2.236.26-9.617 0-11.279-.325-2.078-1.155-5.343-1.643-6.53-.26-.613-.764-1.444-1.122-1.84-1.041-1.148-1.66-1.405-3.513-1.405-1.464-.02-1.725.04-2.538.514-1.057.634-2.847 2.79-3.383 4.077-.195.475-.504 1.543-.683 2.374-.976 4.571.227 15.534 3.383 30.928l.91 4.472-1.252 2.711c-1.415 3.107-2.83 5.739-4.131 7.737-1.123 1.722-6.214 8.014-7.043 8.707-1.79 1.523-6.686 2.473-10.492 2.077-3.497-.376-6.019-1.424-9.434-3.918-6.116-4.491-7.694-5.975-8.573-8.073-2.456-5.916-4.635-14.207-5.384-20.46-.943-7.955-.455-18.917 1.204-26.912.927-4.472 1.757-6.985 3.627-11.08.716-1.584 1.66-3.84 2.082-5.007.7-1.959 1.838-4.492 2.034-4.492.032 0 .488.258 1.008.574 2.229 1.365 4.961 1.9 8.182 1.583 6.653-.633 11.207-3.186 15.94-8.884 2.034-2.474 2.864-3.84 3.677-6.135 1.757-5.006 1.057-9.557-1.773-11.298-.39-.238-.976-.733-1.301-1.089-1.92-2.097-4.734-2.592-7.776-1.365-.764.317-2.814 1.445-4.554 2.493a208.333 208.333 0 01-4.88 2.909c-2.928 1.642-4.424 2.929-7.726 6.59l-3.075 3.403-.553-.772c-.878-1.207-2.586-4.472-3.22-6.095-.31-.83-.749-2.354-.992-3.423-.39-1.741-.44-2.275-.44-5.402-.016-1.9.082-4.65.212-6.114.211-2.315.211-2.711 0-3.166-.277-.594-1.106-.812-1.415-.356zM61.9 35.842c.244.1.65.436.91.732.554.653.57 1.504.05 3.068-.57 1.681-1.123 2.592-2.863 4.709-1.383 1.682-1.74 1.998-3.416 3.008-2.147 1.286-5.173 2.532-7.629 3.146-1.627.396-1.773.396-3.22.099-.846-.158-1.578-.356-1.627-.416-.18-.217 1.334-2.355 3.025-4.234.944-1.049 2.489-2.81 3.432-3.898.944-1.108 2.034-2.276 2.44-2.612 1.985-1.643 6.377-3.8 7.76-3.82.373 0 .877.1 1.138.218zm19.356 42.722c.895.475 1.253 1.227 1.692 3.463.456 2.236.602 6.985.31 10.329-.164 2.018-1.774 10.586-2.034 10.922-.13.159-.18 0-.716-2.77-.293-1.484-.91-4.234-1.399-6.094-.943-3.641-1.512-6.649-1.659-8.746-.13-1.88.472-4.215 1.724-6.65.488-.989.96-1.088 2.082-.454zm34.696 13.91c-.016 3.404-.83 9.162-1.806 12.684-.732 2.612-2.456 6.966-2.602 6.51-.049-.197-.147-1.78-.212-3.522-.162-4.788.326-10.487 1.155-13.594.651-2.414 1.952-3.918 2.993-3.483.456.198.472.258.472 1.406zM253.677 35.862c-2.668 3.245-3.79 4.887-7.727 11.24-1.773 2.869-2.082 4.353-.992 4.828 1.057.455 2.196-.693 4.424-4.433 3.254-5.441 5.157-9.102 6.767-13 1.204-2.929.992-2.81-2.472 1.365z" fill="#000"/><path d="M152.014 49.555c-.228.416-2.505 2.83-6.702 7.084-1.448 1.484-1.692 1.583-4.489 1.94-1.334.157-1.806.138-3.221-.199-2.082-.495-3.53-.495-5.091-.02-3.156.99-4.327 2.612-5.905 8.113-.553 1.94-.114 3.582.944 3.582.423 0 .699-.238 1.577-1.365.586-.752 1.237-1.465 1.448-1.603.309-.198.976-.218 2.847-.08 4.57.317 5.644.159 7.986-1.206 1.855-1.089 3.888-2.969 6.23-5.739 2.83-3.324 4.262-5.896 4.847-8.766.375-1.82.098-2.81-.471-1.741zM261.37 53.334c-4.424.772-7.433 1.96-8.865 3.483-.748.811-1.057 1.544-1.057 2.553 0 .633.114.95.553 1.523.521.713.602.752 1.757.812.699.04 2.001-.08 3.221-.337 6.148-1.207 10.068-1.147 15.94.297 2.635.633 4.734 1.504 7.645 3.146 1.302.732 3.677 2.038 5.287 2.91 1.61.85 3.383 1.879 3.936 2.255.57.376 1.09.633 1.171.574.179-.119-.244-1.742-.797-3.067-1.024-2.474-3.172-5.264-5.465-7.104-1.675-1.346-5.498-3.68-7.873-4.828-3.513-1.702-6.23-2.316-10.735-2.414-2.18-.06-3.66 0-4.718.197zM162.31 70.391c-1.057.93-1.61 2.078-2.212 4.571-.716 3.067-.342 5.363 1.236 7.44 1.676 2.197 2.847 2.632 6.149 2.197 1.22-.158 2.244-.257 2.261-.218.032.04-.065.713-.212 1.524-.374 1.998-.374 6.846-.016 8.885.765 4.254 2.944 6.925 5.612 6.925.976 0 2.489-.494 3.611-1.187 1.187-.732 3.237-2.632 4.375-4.037.488-.593.944-1.048 1.025-.99.065.06.13.357.13.674 0 .97.618 3.047 1.155 3.819 1.22 1.8 3.644 2.374 5.514 1.306 1.172-.673 2.375-2.019 3.758-4.195.976-1.524 1.122-1.682 1.187-1.287.521 3.087.96 4.611 1.838 6.333.765 1.543 2.115 3.185 3.14 3.819 2.749 1.701 6.653 1.385 9.857-.792.943-.653 1.057-.673 1.155-.356.504 1.741 1.187 2.81 2.228 3.463.488.316.96.435 1.773.415.944 0 1.285-.118 2.359-.752 1.708-1.029 3.839-3.641 5.969-7.281l1.595-2.731.276.752c1.171 3.186 3.497 3.74 7.466 1.761l1.025-.515-.081.554c-2.31 13.159-2.31 13.1-2.066 20.124.228 6.451.325 7.361 1.22 11.378 1.317 5.877 1.968 8.054 3.643 12.17 2.115 5.224 3.498 7.756 5.694 10.408 2.423 2.948 4.294 4.215 6.604 4.472 1.366.158 1.447-.119.439-1.286-.993-1.168-1.513-2.256-4.473-9.538-2.668-6.589-3.465-8.904-4.181-12.11-.96-4.432-2.326-13.277-2.781-17.967-.228-2.533-.114-9.3.26-13.456.244-2.651.781-7.321.976-8.528.065-.337.52-.93 1.366-1.722 1.529-1.484 4.181-4.768 5.352-6.668 1.155-1.88 2.57-5.362 2.976-7.4.716-3.444.147-6.075-1.48-7.104-1.35-.831-2.928-.159-4.782 2.038-2.245 2.671-3.969 6.846-6.279 15.236l-.911 3.364-1.464 1.128c-1.48 1.148-3.415 2.197-4.489 2.434-.553.119-.618.099-.862-.475-.13-.336-.325-1.583-.423-2.75l-.179-2.157.683-1.94c2.554-7.281 3.384-11.437 2.7-13.435-.504-1.465-1.789-1.94-2.879-1.05-1.724 1.406-3.643 7.263-4.034 12.408-.162 2.196-.341 2.651-2.196 6.035-3.106 5.699-6.555 10.171-7.482 9.736-.26-.119-.683-1.445-.829-2.573-.212-1.543-1.318-2.018-2.213-.95-.26.317-.52.851-.569 1.188l-.098.613h-1.87c-2.391 0-4.864-.336-5.579-.752-.7-.415-1.497-2.236-1.822-4.195-.586-3.502.032-11.734 1.35-18.086.423-2.018.439-3.304.081-3.977-.553-1.03-1.984-1.385-3.155-.772-1.692.851-2.636 3.186-3.774 9.459-.716 3.878-1.757 6.252-4.49 10.19-1.886 2.77-3.481 3.938-4.18 3.107-.634-.772-.764-3.047-.358-6.292.179-1.544.391-2.276.976-3.72 1.432-3.463 2.033-6.49 1.48-7.381-.114-.178-.439-.436-.715-.554-1.432-.594-2.977 1.998-4.262 7.143-.277 1.148-.634 2.434-.781 2.87-.341 1.008-4.294 5.856-5.644 6.925-2.033 1.622-4.181 2.137-5.01 1.207-.992-1.128-1.578-3.76-1.578-7.163 0-1.96.423-5.462.797-6.51.098-.278.667-.673 1.724-1.168 3.839-1.86 6.019-4.769 6.003-8.034 0-2.592-1.367-4.353-3.4-4.353-1.757 0-3.27 1.385-4.652 4.274-.618 1.306-1.627 3.958-1.985 5.244-.113.396-2.374.97-3.822.97-.944 0-1.09-.06-1.497-.594-.732-.95-.911-2.335-.65-4.907.325-3.087.309-3.523-.212-4.116-.244-.277-.439-.554-.439-.653 0-.159-.716-.614-.96-.614-.065 0-.52.337-.992.732zm15.339 4.176c0 .356-.211.95-.455 1.345-.44.712-2.148 2.177-2.31 1.999-.147-.198.992-2.573 1.61-3.364.732-.95 1.204-.93 1.155.02zm69.407 3.64c-.227 1.623-1.203 4.057-2.505 6.253-.976 1.643-3.285 4.73-3.432 4.552-.146-.178.911-5.026 1.318-5.996.602-1.385 1.545-2.89 3.107-4.907.748-.95 1.35-1.84 1.366-1.98 0-.118.081-.019.179.258.114.337.097.89-.033 1.82zM260.053 105.97c-.927.356-2.163 1.662-2.619 2.73-.716 1.722-.293 3.72.976 4.71.748.574 2.521 1.167 3.497 1.167 3.14 0 5.075-3.957 3.319-6.787-1.09-1.722-3.351-2.533-5.173-1.82zM198.486 147.029c-2.652.475-5.303 2.315-8.231 5.699-3.773 4.373-6.799 13.06-8.816 25.367-1.952 11.814-2.635 27.505-1.643 37.894.195 2.097.212 2.77.065 3.106-1.057 2.434-4.733 8.489-6.197 10.171-1.61 1.9-3.741 3.859-5.043 4.65-1.854 1.128-4.554 2.197-5.644 2.217-1.871.039-3.546-1.425-4.083-3.562-.293-1.128-.65-3.879-.65-4.908 0-.217 1.155-2.671 2.57-5.441 4.05-7.935 4.831-9.795 6.506-15.336.813-2.71 1.074-4.293.976-5.896-.195-2.889-1.919-4.769-4.034-4.413-1.789.297-4.099 2.216-5.27 4.353-2.147 3.938-4.148 13.733-4.668 22.875l-.179 3.265-.911 1.444a32.834 32.834 0 01-1.887 2.672c-.83 1.029-1.236 1.345-2.489 1.978-1.903.95-2.18.93-2.44-.257-.325-1.523-.244-5.995.195-10.547.212-2.295.537-5.896.716-7.954.195-2.157.569-5.066.895-6.827.862-4.67.959-5.56.764-6.49-.276-1.207-.732-1.544-2.358-1.702-1.594-.158-2.164.04-3.319 1.207-2.033 2.018-3.79 6.372-4.814 11.952-.879 4.828-1.416 13.02-1.106 16.898l.211 2.454-1.318 3.126c-.992 2.355-1.74 3.8-3.058 5.897-2.342 3.72-4.115 5.917-5.058 6.253-.7.257-.716.238-1.09-.336-1.48-2.217-2.342-10.27-2.342-21.826v-3.839l1.041-2.196c2.553-5.422 5.075-12.13 6.685-17.73a163.566 163.566 0 011.415-4.749c2.765-8.43 3.66-12.11 4.555-18.403.455-3.265.504-4.096.504-7.717.016-5.639-.407-8.33-1.838-11.991-1.171-2.968-2.456-4.452-4.522-5.224-1.643-.613-3.579-.455-5.01.455-.586.356-1.578 1.642-2.342 3.008a22.068 22.068 0 01-1.253 1.959c-1.675 2.295-2.537 5.065-4.278 13.713-1.871 9.32-2.619 13.851-3.172 19.253-.959 9.637-1.301 22.736-.813 31.423l.276 5.006-.618 1.088c-1.122 1.979-5.319 8.272-6.409 9.578-1.935 2.354-6.506 6.767-9.304 8.963-2.293 1.821-7.482 5.244-9.239 6.095-1.724.831-4.912 1.761-6.116 1.761-.878 0-4.538-1.227-5.628-1.9-1.594-.969-2.847-2.236-4.961-4.966-3.123-4.076-3.758-5.145-5.482-9.281-1.431-3.462-3.009-8.746-3.92-13.139-.83-4.016-1.708-10.705-1.708-13.079 0-2.83 1.334-14.307 2.017-17.295.114-.554.374-1.484.57-2.077.439-1.306 3.61-9.736 3.74-9.934.05-.059 1.204-.217 2.538-.336 7.808-.693 15.063-2.968 21.374-6.669 4.262-2.493 6.701-4.808 7.742-7.321.407-.989.488-1.385.472-2.652 0-2.75-1.008-4.254-4.131-6.272-2.522-1.623-3.53-1.92-6.588-1.92-2.798.02-3.497.198-7.174 1.86-3.09 1.425-6.002 3.127-7.856 4.631-3.4 2.77-8.556 8.429-9.938 10.942-.31.574-.667 1.049-.781 1.049-.57 0-5.71-1.266-6.458-1.603-.52-.237-1.285-.831-1.87-1.484-.781-.851-1.074-1.049-1.35-.95-.489.159-.798.693-.7 1.168.146.732.716 2.612.992 3.245.862 2.038 3.562 4.353 6.149 5.244.504.178.927.356.927.395 0 .04-.374 1.049-.83 2.217-1.512 3.918-2.423 7.143-3.48 12.248a106.14 106.14 0 01-.798 3.602c-1.529 6.134-2.277 14.821-1.903 21.984.423 7.954 1.53 13.871 3.481 18.541 1.545 3.759 4.44 8.33 7.629 12.09 2.375 2.79 3.985 4.215 6.555 5.778 3.546 2.137 6.263 3.008 9.922 3.146 2.44.099 2.75.06 5.043-.514 3.058-.752 5.026-1.524 7.32-2.87 2.017-1.187 5.514-3.957 7.954-6.312 2.521-2.453 8.295-9.597 10.996-13.653 1.301-1.92 2.391-3.503 2.44-3.503.065 0 .195.831.309 1.821.113 1.009.422 2.869.666 4.116.879 4.333 1.839 6.925 3.124 8.449 1.659 1.959 5.205 3.225 6.75 2.394.862-.475 4.099-3.146 5.01-4.155 1.627-1.821 4.115-6.213 5.774-10.25.375-.93.716-1.722.749-1.761.048-.06.406.356.797.91 1.431 1.979 3.204 3.047 5.091 3.067 1.155 0 1.252-.04 3.53-1.425 2.667-1.622 4.001-2.75 5.416-4.689.553-.732 1.009-1.227 1.009-1.089 0 .139.227.97.504 1.841.699 2.236 1.952 3.819 3.855 4.986 1.35.811 1.431.831 3.026.831 2 0 2.765-.277 5.79-2.097 3.985-2.414 6.588-4.69 8.572-7.5 1.302-1.82 3.628-6.035 3.742-6.787.162-1.029.325-.712.52 1.009.618 5.561 2.294 13.911 3.302 16.503 1.48 3.78 3.839 5.145 6.523 3.74.651-.336 3.822-2.691 7.238-5.382 3.514-2.751 7.304-8.331 9.727-14.327 1.155-2.889 1.692-5.402 1.692-8.093 0-3.205-.732-5.639-2.293-7.717-1.871-2.493-3.742-3.423-6.442-3.225-4.75.356-9.938 3.502-13.11 7.954l-.976 1.386.097-2.949.114-2.928 1.22-2.711c3.237-7.243 7.466-18.363 10.801-28.455 4.636-14.109 6.506-23.27 5.693-27.999-.244-1.445-.911-2.85-1.562-3.345-.488-.376-2.944-1.187-3.383-1.127-.081 0-.537.079-.992.158zm3.269 4.096c.293.89.374 2.849.228 4.808-.228 2.889-.813 5.996-1.968 10.29-1.936 7.222-8.068 24.912-11.679 33.738l-1.139 2.77.082-1.781c.227-4.591 1.236-12.783 2.293-18.798 1.985-11.16 3.432-16.602 6.084-22.815 2.358-5.521 4.212-8.212 5.872-8.529.065-.02.162.139.227.317zm-69.586 9.874c.846 2.256 1.188 5.501 1.188 11.101 0 3.759-.277 6.827-.879 9.854-.52 2.592-2.749 10.507-4.001 14.267a574.76 574.76 0 00-2.066 6.213c-.586 1.801-1.139 3.344-1.204 3.443-.081.099-.097-2.077-.065-4.848.049-2.77.114-8.449.163-12.644.081-8.232.228-11.358.748-15.889.634-5.462 1.692-9.419 3.091-11.477.618-.911.845-1.029 1.87-1.029.781.02.781.02 1.155 1.009zm-39.461 2.948c.406.178.992.614 1.285.99.537.672.537.692.227 1.108-.162.237-1.252 1.365-2.423 2.493-5.905 5.758-9.597 7.836-15.94 8.944-2.799.495-3.986.613-3.986.396 0-.495 5.92-8.311 7.124-9.419.83-.752 5.206-3.324 7.044-4.136 2.082-.91 5.026-1.088 6.669-.376zm72.432 37.795c0 1.424-.081 1.84-.878 4.254a116.55 116.55 0 01-1.545 4.452c-.732 1.92-3.806 8.291-3.937 8.133-.097-.119.537-5.719.944-8.172.602-3.701 1.561-6.946 2.521-8.489.569-.95 1.838-1.88 2.424-1.821l.488.06-.017 1.583zm33.216 12.604c.813 1.188.911 1.761.715 3.879-.422 4.393-1.398 8.983-2.57 12.11-.504 1.385-1.659 3.324-3.188 5.461-.748 1.009-1.236 1.464-2.098 1.979-.862.495-1.204.613-1.431.455-.358-.218-1.074-1.682-1.399-2.81-.293-1.049-.895-6.015-1.35-11.101l-.342-3.918.358-.474c1.317-1.702 5.319-4.433 8.198-5.6 1.984-.792 2.537-.792 3.107.019z" fill="#000"/><path d="M264.217 149.601c-1.708.416-4.018 1.801-6.1 3.681-2.212 1.979-5.628 6.411-8.312 10.764-4.88 7.955-7.287 11.952-8.458 14.05-1.692 3.047-3.351 5.243-4.213 5.56-.553.198-.699.178-1.204-.198-.732-.554-.862-1.187-1.561-7.598-.358-3.305-.57-4.314-1.269-5.996-1.415-3.423-4.652-6.49-7.369-7.005-4.294-.791-7.189 3.364-8.133 11.675-.276 2.572-.244 7.48.082 9.696.374 2.493 1.61 8.271 2.31 10.764.325 1.108 1.773 4.987 3.236 8.628 2.928 7.321 2.945 7.38 5.417 14.84l1.724 5.244v2.375c0 2.196-.049 2.671-.829 6.53-.472 2.275-.927 4.749-1.025 5.461-.179 1.385-1.594 7.46-2.115 9.082-.179.554-.26.99-.195.99.391 0 2.05-3.76 3.074-7.025.326-.989.765-2.236.993-2.77 1.171-2.83 2.928-8.885 3.302-11.418.309-2.176.276-6.114-.082-7.677-.488-2.137-1.691-6.075-2.781-9.004-.569-1.523-1.285-3.838-1.594-5.144-.326-1.306-.96-3.582-1.415-5.046-1.725-5.442-2.847-10.25-3.319-14.247-.357-2.929-.748-8.311-.748-10.211 0-1.781.504-4.175.895-4.373.26-.099 1.513.93 2.228 1.86.244.297.781 1.445 1.188 2.533 1.35 3.542 2.049 5.105 3.269 7.341 1.366 2.533 2.473 3.859 3.936 4.69.879.495 1.172.574 1.92.475 1.139-.139 2.212-.871 3.676-2.513.651-.712 1.887-1.88 2.733-2.573 2.358-1.919 3.285-2.829 5.677-5.599 1.22-1.405 2.879-3.246 3.676-4.057.813-.831 2.814-3.067 4.473-4.986 3.286-3.819 4.392-4.927 5.53-5.64.814-.495 2.115-.989 3.221-1.187l.683-.139v.792c0 1.642-1.513 6.708-2.96 9.913-.862 1.92-4.782 9.004-5.921 10.745-.488.752-1.724 2.493-2.733 3.879-4.245 5.876-8.1 12.288-11.516 19.213-1.92 3.879-2.668 5.66-4.652 11.101-5.287 14.524-10.085 31.977-11.744 42.742a111.573 111.573 0 01-.911 4.927c-.976 4.729-1.058 5.877-1.139 16.245-.114 15.85-.097 16.127.537 19.491.325 1.722.472 2.078.862 2.078.732 0 .813-.416.813-4.017 0-1.88.114-4.294.228-5.382.13-1.089.488-4.334.813-7.223.814-7.163 1.041-8.706 2.635-17.116 1.969-10.389 2.717-13.931 3.888-18.205 1.383-5.026 2.066-6.965 5.27-14.643 1.48-3.601 3.123-7.598 3.628-8.904 1.203-3.107 3.887-8.944 7.287-15.83 1.496-3.047 4.017-8.212 5.612-11.477 3.269-6.708 6.295-12.526 9.336-17.908 2.896-5.145 3.758-6.866 5.547-11.318 2.098-5.204 2.472-6.55 2.554-9.459.097-2.651-.147-4.215-.96-6.272-1.561-3.938-5.303-6.095-8.995-5.205zM3.895 161.988c-1.431 1.465-.586 4.769 1.545 6.036.96.554 6.62 2.631 8.654 3.166 2.066.534 6.945.732 9.45.376 1.969-.277 4.913-1.128 6.165-1.781 2.261-1.188 2.456-3.661.342-4.354-.537-.178-1.269-.178-3.074 0-2.928.277-7.434.297-9.37 0-2.586-.376-5.872-1.484-9.288-3.086-1.48-.713-2.033-.871-2.879-.871-.894 0-1.122.079-1.545.514zM28.847 178.155c-1.366.554-2.196 1.068-5.205 3.166-4.18 2.909-7.466 5.58-13.094 10.626a791.851 791.851 0 01-5.026 4.452c-2.603 2.276-4.36 4.393-5.027 6.035-.585 1.405-.601 1.564-.309 2.058.212.337.277.337 1.757-.138 1.968-.653 3.253-1.346 5.628-3.127 1.057-.791 3.481-2.572 5.384-3.977 3.644-2.671 11.24-8.667 16.657-13.159 3.595-2.988 3.936-3.443 3.513-4.749-.488-1.603-2.13-2.058-4.278-1.187zM35.679 191.947c-1.285.831-3.416 2.889-5.043 4.887-6.392 7.816-10.345 18.759-11.305 31.344-.292 3.68-.13 14.148.228 15.692.39 1.701.846 2.829 1.497 3.819.667.989 1.301 1.444 2 1.444.44 0 .553-.138 1.155-1.444.992-2.177 1.383-3.958 1.79-8.054.178-2.018.439-4.512.569-5.541.13-1.029.423-4.036.65-6.668.667-7.757 1.302-11.378 2.798-15.988 1.773-5.462 3.254-8.549 6.702-13.951 2.18-3.383 2.521-4.096 2.358-4.848-.276-1.385-1.821-1.701-3.4-.692z" fill="#000"/></svg>